
<svg version="1.0" xmlns="http://www.w3.org/2000/svg"
 width="684.000000pt" height="738.000000pt" viewBox="0 0 684.000000 738.000000"
 preserveAspectRatio="xMidYMid meet">

<g transform="translate(0.000000,738.000000) scale(0.100000,-0.100000)"
fill="#000000" stroke="none">
<path d="M1031 7027 c-56 -16 -64 -34 -14 -30 21 1 30 0 21 -3 -20 -6 -23 -19
-8 -29 6 -4 7 -11 4 -17 -5 -7 -2 -8 7 -2 8 5 17 9 22 10 4 1 8 2 10 4 1 1 11
3 21 5 10 2 23 10 27 17 7 11 11 11 18 -1 6 -9 14 -10 22 -5 8 5 78 9 156 10
133 1 140 0 130 -17 -6 -10 -14 -16 -17 -14 -3 2 -26 -1 -51 -7 -24 -6 -110
-11 -191 -12 -168 -1 -184 -7 -155 -56 l18 -29 -28 -7 c-82 -18 -106 -27 -124
-45 -30 -30 -25 -49 11 -44 91 15 95 15 78 4 -24 -14 -23 -20 10 -57 35 -39
34 -70 -4 -114 -22 -26 -42 -38 -81 -47 -28 -7 -54 -20 -57 -28 -5 -12 -1 -14
19 -9 13 3 58 13 99 21 41 7 84 18 94 24 10 5 49 12 88 15 189 16 228 17 216
8 -26 -18 40 -20 354 -12 17 0 20 6 20 35 -1 24 -6 35 -16 36 -9 0 -5 4 8 9
33 14 27 22 -13 19 -35 -4 -49 11 -21 21 14 5 8 33 -8 31 -3 -1 -5 2 -3 7 1 4
13 7 26 7 13 0 26 6 29 14 3 9 -1 11 -16 6 -28 -8 -63 11 -56 30 5 12 -5 15
-52 17 -36 1 -45 3 -24 5 19 2 51 6 70 9 35 6 35 6 10 17 -14 5 -31 9 -37 8
-22 -3 -14 19 10 28 12 5 31 18 41 30 21 23 46 28 46 10 0 -8 4 -8 13 -1 23
19 222 33 380 27 84 -4 153 -7 154 -8 6 -6 -11 -57 -19 -57 -6 0 -7 11 -4 26
6 22 4 25 -9 20 -9 -3 -21 -6 -26 -6 -5 0 -9 -5 -9 -11 0 -6 7 -8 16 -5 10 4
14 1 11 -6 -2 -7 -12 -12 -21 -12 -20 2 -20 -1 0 -20 13 -14 19 -14 49 -2 18
8 36 12 38 9 8 -7 105 -6 117 2 5 3 7 12 4 19 -4 10 -14 12 -40 6 -25 -6 -34
-5 -31 3 2 6 14 14 28 17 13 3 24 12 24 20 0 12 -18 15 -90 16 -53 0 -100 5
-114 13 -16 9 -86 13 -245 15 -121 1 -227 5 -234 10 -7 4 -25 6 -40 5 -15 -2
-33 0 -40 5 -7 4 -38 8 -70 8 -31 0 -102 9 -157 20 -127 24 -334 32 -394 15z
m213 -6 c4 -5 -8 -12 -24 -16 -38 -8 -132 4 -124 16 7 12 141 12 148 0z m386
-152 c0 -6 -4 -7 -10 -4 -5 3 -10 11 -10 16 0 6 5 7 10 4 6 -3 10 -11 10 -16z
m-266 -15 c9 -22 -3 -32 -14 -14 -9 13 -10 13 -10 0 0 -8 4 -21 9 -29 7 -11
13 -9 30 8 11 11 18 27 15 36 -5 11 -2 14 10 9 24 -9 17 -50 -8 -46 -11 2 -16
-1 -14 -10 4 -9 25 -13 77 -12 39 1 71 -2 71 -7 0 -5 -35 -9 -77 -9 -43 0
-153 -3 -245 -6 -105 -4 -168 -3 -168 3 0 21 39 43 81 46 24 1 49 7 54 14 6 6
43 14 83 16 40 2 75 7 79 11 11 10 21 7 27 -10z m246 -5 c0 -11 -27 -12 -34 0
-3 4 -3 11 0 14 8 8 34 -3 34 -14z m-137 5 c-7 -3 -9 -12 -6 -20 6 -16 -13
-19 -23 -3 -7 11 13 29 31 28 6 0 5 -3 -2 -5z m74 -20 c-3 -3 -12 -4 -19 -1
-8 3 -5 6 6 6 11 1 17 -2 13 -5z m113 -68 c0 -3 -4 -8 -10 -11 -5 -3 -10 -1
-10 4 0 6 5 11 10 11 6 0 10 -2 10 -4z m-60 -16 c0 -5 -4 -10 -9 -10 -6 0 -13
5 -16 10 -3 6 1 10 9 10 9 0 16 -4 16 -10z m-200 -51 c0 -8 5 -7 15 1 15 13
45 7 45 -8 0 -10 -277 -35 -291 -27 -15 10 -10 28 6 22 8 -4 17 -2 20 4 4 5
10 7 14 5 4 -3 29 -2 57 2 82 12 134 12 134 1z m-253 -25 c-3 -3 -12 -4 -19
-1 -8 3 -5 6 6 6 11 1 17 -2 13 -5z m433 -14 c0 -5 -2 -10 -4 -10 -3 0 -8 5
-11 10 -3 6 -1 10 4 10 6 0 11 -4 11 -10z m60 0 c0 -5 -5 -10 -11 -10 -5 0 -7
5 -4 10 3 6 8 10 11 10 2 0 4 -4 4 -10z m-40 -54 c0 -3 -4 -8 -10 -11 -5 -3
-10 -1 -10 4 0 6 5 11 10 11 6 0 10 -2 10 -4z"/>
<path d="M1270 6829 c0 -5 5 -7 10 -4 6 3 10 8 10 11 0 2 -4 4 -10 4 -5 0 -10
-5 -10 -11z"/>
<path d="M990 6973 c0 -5 5 -15 10 -23 8 -12 10 -11 10 8 0 12 -4 22 -10 22
-5 0 -10 -3 -10 -7z"/>
<path d="M1680 6839 c0 -5 5 -7 10 -4 6 3 10 8 10 11 0 2 -4 4 -10 4 -5 0 -10
-5 -10 -11z"/>
<path d="M1726 6832 c-3 -6 -1 -14 5 -17 15 -10 25 3 12 16 -7 7 -13 7 -17 1z"/>
<path d="M2200 6815 c-22 -7 -29 -14 -20 -17 13 -4 13 -7 1 -21 -12 -15 -11
-17 8 -17 19 0 20 -2 9 -20 -10 -16 -14 -17 -16 -6 -2 9 -12 14 -24 13 -24 -4
-41 -29 -26 -38 15 -9 -12 -37 -30 -31 -6 2 -12 0 -12 -5 0 -18 17 -32 35 -31
11 1 35 -2 53 -6 26 -6 32 -4 32 8 0 20 19 21 26 2 3 -7 16 -12 30 -10 27 3
30 -5 12 -25 -11 -11 6 -12 94 -9 112 4 155 19 107 36 -13 5 -30 7 -37 5 -7
-3 -33 -2 -58 2 -39 6 -44 8 -33 22 11 12 10 17 -4 28 -14 10 -17 23 -13 57 3
23 5 44 5 46 1 1 8 2 16 2 9 0 12 6 8 15 -7 19 -107 19 -163 0z m75 -24 c-3
-6 -11 -8 -17 -5 -6 4 -5 9 3 15 16 10 23 4 14 -10z m-45 -89 c0 -4 -16 -8
-35 -9 -19 -1 -35 3 -35 8 0 5 16 9 35 9 19 0 35 -4 35 -8z"/>
<path d="M2100 6760 c-12 -8 -12 -10 5 -9 11 0 29 4 40 9 18 8 18 9 -5 9 -14
0 -32 -4 -40 -9z"/>
<path d="M2040 6729 l-25 -6 27 -8 c33 -9 50 -4 35 10 -7 6 -23 8 -37 4z"/>
<path d="M2198 6593 c7 -3 16 -2 19 1 4 3 -2 6 -13 5 -11 0 -14 -3 -6 -6z"/>
<path d="M1770 6580 c0 -5 7 -10 16 -10 8 0 12 5 9 10 -3 6 -10 10 -16 10 -5
0 -9 -4 -9 -10z"/>
<path d="M2295 6578 c-44 -5 -87 -9 -95 -9 -9 0 -20 -10 -26 -22 -6 -14 -16
-21 -29 -19 -20 4 -20 3 0 -13 16 -13 17 -16 3 -11 -10 3 -20 1 -23 -4 -3 -5
-12 -7 -19 -4 -8 3 -17 1 -21 -5 -3 -7 0 -8 9 -5 11 4 16 0 16 -10 0 -9 -5
-16 -11 -16 -5 0 -7 -4 -4 -10 3 -5 15 -10 26 -10 15 0 18 -5 14 -23 -4 -15
-1 -28 9 -36 13 -11 16 -11 16 -1 0 10 3 10 15 0 8 -7 21 -10 29 -7 8 3 13 -1
12 -11 -1 -15 12 -17 94 -19 126 -3 190 5 190 24 0 11 -9 13 -44 8 -53 -8 -88
1 -84 22 3 13 -7 22 -41 40 -1 1 4 16 13 34 20 39 20 43 1 35 -14 -5 -17 12
-5 24 28 29 52 60 44 59 -5 -1 -45 -6 -89 -11z m-133 -100 c-9 -9 -15 -9 -24
0 -9 9 -7 12 12 12 19 0 21 -3 12 -12z m63 2 c3 -5 1 -10 -4 -10 -6 0 -11 5
-11 10 0 6 2 10 4 10 3 0 8 -4 11 -10z m-25 -10 c0 -5 -4 -10 -10 -10 -5 0
-10 5 -10 10 0 6 5 10 10 10 6 0 10 -4 10 -10z m0 -38 c0 -10 5 -23 12 -30 9
-9 8 -12 -5 -12 -9 0 -16 5 -14 12 1 6 -9 14 -23 18 -24 6 -24 6 -5 18 28 16
35 15 35 -6z m70 -3 c0 -5 -7 -9 -15 -9 -15 0 -20 12 -9 23 8 8 24 -1 24 -14z
m52 -13 c9 -13 -2 -36 -18 -36 -8 0 -11 6 -7 16 3 9 0 20 -8 25 -11 8 -9 9 6
7 11 -2 23 -7 27 -12z"/>
<path d="M1835 6570 c4 -6 11 -8 16 -5 14 9 11 15 -7 15 -8 0 -12 -5 -9 -10z"/>
<path d="M1118 6518 c-18 -4 -59 -8 -90 -9 -82 -3 -86 -10 -43 -57 50 -56 53
-90 11 -131 -20 -19 -52 -37 -81 -44 -27 -7 -51 -18 -53 -26 -4 -11 1 -12 19
-6 13 4 55 11 94 15 38 4 71 13 73 19 2 6 25 11 51 11 26 0 50 2 53 5 10 11
238 16 238 5 0 -6 39 -10 103 -10 138 0 258 11 251 22 -3 5 3 12 15 15 30 8
26 21 -4 15 -13 -2 -37 -1 -51 2 l-27 7 22 16 c12 8 30 13 41 10 29 -8 47 9
19 19 -22 7 -21 8 16 20 l40 12 -35 1 c-33 0 -90 -17 -62 -18 24 -2 11 -21
-14 -21 -22 0 -24 3 -15 14 9 11 9 15 -1 19 -16 5 56 27 92 27 l25 1 -24 20
c-23 19 -23 20 -5 34 18 13 18 14 -6 8 -14 -3 -32 -12 -40 -18 -27 -24 -55
-21 -81 7 l-25 27 -237 -2 c-130 -1 -251 -5 -269 -9z m632 -32 c0 -3 -4 -8
-10 -11 -5 -3 -10 -1 -10 4 0 6 5 11 10 11 6 0 10 -2 10 -4z m-290 -50 c0 -9
-18 -16 -52 -21 -147 -21 -215 -26 -240 -16 -17 7 -19 10 -8 15 35 13 130 24
203 24 43 0 81 3 84 6 10 9 13 7 13 -8z"/>
<path d="M2090 6329 c0 -13 35 -15 59 -3 21 11 20 12 -18 11 -23 -1 -41 -4
-41 -8z"/>
<path d="M2195 6310 c-4 -6 -11 -8 -16 -5 -5 4 -9 1 -9 -4 0 -14 27 -14 35 -1
4 6 11 8 16 4 6 -3 1 -13 -11 -21 -12 -8 -24 -12 -27 -9 -4 3 -14 -6 -23 -22
-12 -19 -14 -29 -6 -35 7 -6 4 -7 -6 -3 -25 8 -23 -20 1 -34 26 -13 34 -13 25
2 -5 7 0 9 14 6 13 -4 23 0 27 10 5 13 8 12 21 -7 9 -12 14 -25 11 -28 -3 -2
-30 -5 -60 -6 -39 -2 -53 -6 -50 -14 3 -7 -1 -13 -8 -13 -22 0 7 -23 30 -24
40 -2 22 -21 -31 -32 -29 -7 -46 -13 -38 -14 8 -1 20 -1 25 0 6 1 24 4 42 5
17 2 41 6 52 10 12 3 21 2 21 -3 0 -5 10 -8 23 -6 12 2 73 8 135 15 84 9 112
15 112 26 0 11 -11 12 -49 7 -48 -6 -51 -5 -83 32 -18 21 -32 42 -30 46 1 5 5
28 7 51 4 27 13 48 28 59 21 17 19 18 -75 18 -55 0 -100 -4 -103 -10z m145
-169 c0 -15 -9 -20 -46 -23 -55 -4 -79 7 -35 17 17 3 33 11 36 16 11 17 45 10
45 -10z"/>
<path d="M1586 6273 c-1 -1 -85 -5 -186 -8 -235 -7 -400 -15 -417 -22 -23 -9
-14 -29 30 -71 27 -25 22 -81 -10 -114 -15 -15 -35 -28 -44 -28 -10 0 -28 -4
-41 -9 -13 -5 -32 -12 -42 -16 -13 -4 -16 -9 -9 -16 11 -11 154 6 163 20 5 8
272 36 318 33 13 -1 31 -6 42 -12 17 -9 113 -7 295 5 28 2 60 4 73 4 39 2 13
21 -27 21 -47 0 -72 23 -42 39 11 6 27 11 35 11 9 0 16 5 16 11 0 7 -11 8 -30
4 -17 -4 -30 -2 -30 3 0 11 46 22 94 23 25 0 27 2 11 8 -16 7 -14 9 15 14 32
7 36 16 8 21 -7 2 -21 6 -31 11 -9 4 -29 5 -43 2 -27 -5 -44 15 -44 51 0 18
-6 20 -51 19 -28 -1 -52 -3 -53 -4z m24 -53 c0 -5 -4 -10 -10 -10 -5 0 -10 5
-10 10 0 6 5 10 10 10 6 0 10 -4 10 -10z m80 0 c0 -5 -6 -10 -14 -10 -8 0 -18
5 -21 10 -3 6 3 10 14 10 12 0 21 -4 21 -10z m54 -44 c-3 -9 -10 -16 -15 -16
-5 0 -4 9 3 20 14 22 21 20 12 -4z m-314 -11 c0 -8 -10 -16 -22 -17 -13 -1
-32 -2 -43 -3 -11 -1 -44 -5 -72 -9 -60 -9 -160 1 -146 15 5 5 58 12 118 17
166 14 165 14 165 -3z m280 -5 c0 -5 -4 -10 -10 -10 -5 0 -10 5 -10 10 0 6 5
10 10 10 6 0 10 -4 10 -10z"/>
<path d="M2117 6243 c-4 -3 -7 -11 -7 -17 0 -6 5 -5 12 2 6 6 9 14 7 17 -3 3
-9 2 -12 -2z"/>
<path d="M2086 6202 c-5 -9 19 -44 26 -36 8 7 -3 44 -13 44 -4 0 -10 -3 -13
-8z"/>
<path d="M1806 6055 c-17 -13 -16 -14 10 -11 16 2 36 4 44 5 13 1 13 2 0 11
-20 13 -32 12 -54 -5z"/>
<path d="M2270 6048 c-41 -5 -85 -9 -97 -9 -13 -1 -20 -6 -17 -11 3 -5 14 -6
24 -3 10 3 21 1 24 -4 4 -5 -7 -12 -23 -16 -16 -3 -35 -13 -42 -21 -6 -8 -17
-14 -24 -14 -17 0 -27 -42 -12 -52 8 -5 14 1 17 15 7 27 40 36 40 10 0 -14 -2
-15 -9 -5 -6 11 -10 10 -15 -4 -9 -23 -6 -24 39 -14 25 6 46 5 59 -2 20 -11
20 -11 -4 -20 -14 -5 -38 -8 -55 -7 -17 2 -35 0 -42 -4 -6 -4 -18 -4 -26 -1
-8 3 -18 1 -22 -5 -6 -11 14 -16 44 -11 8 1 17 -3 20 -8 3 -5 23 -12 44 -15
21 -3 41 -8 45 -13 4 -4 -1 -4 -10 -1 -10 4 -18 2 -18 -3 0 -6 -7 -10 -15 -10
-8 0 -15 -4 -15 -10 0 -9 94 -6 165 5 17 2 55 7 85 10 58 7 70 11 70 25 0 5
-22 6 -49 3 -54 -6 -94 2 -73 16 9 5 6 15 -13 35 -22 23 -24 33 -19 74 3 25
10 52 15 58 15 18 -8 21 -91 12z m-70 -88 c0 -5 -4 -10 -10 -10 -5 0 -10 5
-10 10 0 6 5 10 10 10 6 0 10 -4 10 -10z m114 -46 c4 -9 13 -14 21 -10 9 3 15
0 15 -8 0 -8 3 -21 6 -30 5 -13 -2 -16 -34 -16 -41 0 -59 11 -47 30 5 8 11 8
20 0 9 -8 15 -8 20 0 3 5 -1 13 -9 16 -9 3 -16 12 -16 20 0 19 16 18 24 -2z
m-4 -78 c0 -3 -4 -8 -10 -11 -5 -3 -10 -1 -10 4 0 6 5 11 10 11 6 0 10 -2 10
-4z"/>
<path d="M1530 6010 c-25 -5 -124 -11 -220 -14 -233 -9 -319 -16 -326 -27 -3
-6 7 -27 23 -47 39 -52 38 -84 -4 -127 -27 -28 -42 -35 -72 -35 -37 0 -72 -23
-57 -37 3 -3 45 2 93 11 49 10 129 22 178 27 50 5 128 14 174 19 85 10 108 7
81 -10 -11 -7 -5 -10 23 -10 20 0 37 -4 37 -10 0 -9 -27 -11 -215 -15 -96 -2
-246 -15 -257 -21 -11 -7 4 -32 42 -71 18 -18 27 -33 21 -33 -6 0 -11 -9 -11
-20 0 -10 -6 -23 -12 -27 -7 -4 -18 -17 -24 -28 -6 -11 -28 -24 -50 -29 -97
-21 -109 -42 -21 -37 85 5 95 7 111 20 13 11 16 11 16 0 0 -12 2 -12 9 -1 12
20 290 30 302 11 8 -12 10 -12 18 0 7 10 13 11 30 2 11 -6 31 -9 43 -6 13 3
61 7 108 10 70 4 134 10 169 17 3 1 17 -2 31 -6 14 -4 37 -3 50 3 l25 10 -30
2 c-45 3 -49 4 -63 13 -7 4 -24 5 -38 2 -13 -4 -24 -4 -24 0 0 10 28 33 33 27
9 -8 57 6 57 17 0 6 -15 10 -34 10 -33 0 -34 1 -23 25 13 26 33 35 23 10 -4
-12 4 -15 39 -15 24 0 47 5 51 11 5 8 -6 9 -35 4 -25 -4 -41 -3 -41 3 0 15 21
20 58 14 20 -3 32 0 32 7 0 6 -10 11 -22 11 -13 0 -30 4 -38 10 -9 6 -17 5
-21 -2 -4 -7 -13 -7 -28 1 -12 7 -26 9 -32 5 -12 -7 -29 12 -29 32 0 7 7 14
14 17 10 4 13 1 10 -7 -3 -8 1 -17 8 -22 7 -4 10 -4 6 1 -4 4 -3 15 4 22 19
24 -7 31 -99 28 -47 -2 -82 -1 -79 2 3 3 38 7 78 9 134 6 198 16 198 30 0 17
-17 18 -23 2 -4 -10 -6 -9 -6 1 -1 11 -4 11 -16 1 -10 -8 -15 -9 -15 -1 0 7
-8 8 -22 2 -15 -5 -32 -3 -48 6 -16 8 -19 13 -9 13 9 0 29 20 44 44 24 39 30
43 42 30 16 -16 33 -10 33 11 0 7 8 16 18 18 13 4 12 5 -5 6 -12 0 -25 6 -29
12 -4 7 -20 8 -41 4 -29 -5 -34 -3 -31 11 4 25 -19 29 -27 5 -3 -12 -11 -21
-17 -21 -5 0 -8 7 -4 15 3 8 2 25 -3 38 -10 26 -50 31 -131 17z m-111 -116
c-6 -8 -28 -14 -48 -14 -20 1 -62 -2 -95 -6 -44 -5 -60 -3 -67 7 -6 10 -9 11
-9 2 0 -18 -25 -16 -40 2 -11 13 -3 15 61 16 154 3 179 4 179 11 0 4 7 5 15 2
12 -5 13 -9 4 -20z m46 -4 c-3 -5 -10 -10 -16 -10 -5 0 -9 5 -9 10 0 6 7 10
16 10 8 0 12 -4 9 -10z m-338 -6 c-3 -3 -12 -4 -19 -1 -8 3 -5 6 6 6 11 1 17
-2 13 -5z m578 -4 c3 -5 0 -10 -7 -11 -7 0 -22 -2 -33 -4 -20 -4 -20 -4 -1 11
23 17 33 18 41 4z m-85 -10 c0 -5 -2 -10 -4 -10 -3 0 -8 5 -11 10 -3 6 -1 10
4 10 6 0 11 -4 11 -10z m-80 -50 c0 -5 -2 -10 -4 -10 -3 0 -8 5 -11 10 -3 6
-1 10 4 10 6 0 11 -4 11 -10z m-27 -67 c-7 -2 -19 -2 -25 0 -7 3 -2 5 12 5 14
0 19 -2 13 -5z m159 -65 c-9 -9 -15 -9 -24 0 -9 9 -7 12 12 12 19 0 21 -3 12
-12z m-252 -53 c-17 -17 -66 -24 -160 -26 -118 -2 -160 25 -48 30 29 1 55 4
57 7 2 2 41 4 85 4 71 0 79 -2 66 -15z m50 0 c-7 -8 -17 -12 -22 -9 -6 4 -5
10 3 15 22 14 33 10 19 -6z m200 -25 c0 -5 -10 -10 -22 -9 -22 0 -22 1 -3 9
11 5 21 9 23 9 1 1 2 -3 2 -9z m7 -55 c0 -8 -4 -12 -9 -9 -4 3 -8 9 -8 15 0 5
4 9 8 9 5 0 9 -7 9 -15z m-542 -25 c3 -5 2 -10 -4 -10 -5 0 -13 5 -16 10 -3 6
-2 10 4 10 5 0 13 -4 16 -10z m59 2 c2 -4 -4 -8 -15 -8 -10 0 -19 4 -19 8 0 4
6 8 14 8 8 0 17 -4 20 -8z m-101 -9 c-7 -2 -21 -2 -30 0 -10 3 -4 5 12 5 17 0
24 -2 18 -5z"/>
<path d="M1743 5859 c-2 -22 10 -25 26 -5 9 11 7 15 -7 18 -12 4 -18 -1 -19
-13z"/>
<path d="M2150 5809 c0 -5 5 -7 10 -4 6 3 10 8 10 11 0 2 -4 4 -10 4 -5 0 -10
-5 -10 -11z"/>
<path d="M2359 5796 c-3 -3 -71 -9 -178 -16 -2 0 -1 -6 2 -14 3 -8 -1 -13 -11
-12 -10 1 -16 -6 -16 -16 1 -10 -2 -16 -6 -13 -4 3 -23 -2 -41 -10 l-34 -14
45 -2 45 -1 -32 -10 c-32 -11 -53 -37 -30 -39 7 0 32 0 56 1 29 1 41 -2 37 -9
-4 -6 -24 -11 -44 -11 -33 -1 -35 -2 -20 -14 10 -7 15 -16 12 -19 -3 -3 -3
-11 1 -17 5 -8 12 -7 25 5 23 20 49 10 42 -17 -5 -20 -2 -20 94 -15 54 3 113
8 129 12 17 3 40 8 53 11 12 2 22 9 22 15 0 7 -21 10 -57 7 -54 -3 -57 -2 -63
22 -6 27 -27 35 -50 20 -13 -8 -12 -11 5 -23 18 -14 15 -16 -39 -27 -47 -10
-60 -9 -67 1 -13 22 0 28 47 24 43 -5 44 -4 33 16 -6 12 -7 19 -1 15 13 -8 25
20 26 66 1 24 10 46 26 63 17 18 20 25 8 25 -8 0 -17 -2 -19 -4z m-154 -127
c-29 -11 -35 -10 -35 5 0 9 8 12 27 8 25 -5 25 -6 8 -13z m79 -15 c4 -9 4 -19
1 -22 -7 -8 -35 19 -29 29 8 14 21 11 28 -7z m-49 -4 c3 -5 -1 -10 -9 -10 -9
0 -16 5 -16 10 0 6 4 10 9 10 6 0 13 -4 16 -10z"/>
<path d="M2050 5664 c0 -8 5 -12 10 -9 6 3 10 10 10 16 0 5 -4 9 -10 9 -5 0
-10 -7 -10 -16z"/>
<path d="M2180 5565 c-7 -9 -8 -15 -2 -15 5 0 12 7 16 15 3 8 4 15 2 15 -2 0
-9 -7 -16 -15z"/>
<path d="M2295 5529 c-22 -4 -53 -6 -69 -2 -27 5 -28 4 -22 -22 6 -22 4 -26
-11 -23 -11 2 -17 11 -15 21 2 9 -2 17 -8 17 -7 0 -9 -12 -7 -29 3 -17 0 -32
-6 -34 -5 -1 -11 -10 -13 -19 -1 -11 3 -15 12 -11 8 3 14 0 14 -6 0 -6 -7 -11
-16 -11 -8 0 -12 -5 -9 -11 5 -7 13 -5 24 5 15 14 18 13 29 -4 12 -20 6 -25
-20 -21 -5 0 -8 -12 -8 -29 0 -16 -5 -30 -11 -30 -6 0 -9 7 -5 15 6 15 -9 21
-18 7 -10 -17 12 -32 55 -38 24 -2 62 -8 84 -12 25 -5 59 -3 90 5 28 7 66 13
85 13 19 0 41 4 49 9 20 13 3 33 -22 25 -11 -3 -42 -8 -69 -9 -42 -2 -48 0
-43 14 12 30 10 36 -12 39 -12 2 -24 10 -27 19 -5 11 -2 14 10 9 11 -4 15 -2
11 8 -3 8 -3 17 0 20 4 3 8 18 9 32 2 14 11 35 20 45 16 18 16 19 -12 18 -16
-1 -47 -5 -69 -10z m-10 -129 c3 -5 1 -10 -4 -10 -6 0 -11 5 -11 10 0 6 2 10
4 10 3 0 8 -4 11 -10z m-35 -9 c0 -17 -18 -21 -24 -6 -3 9 0 15 9 15 8 0 15
-4 15 -9z m60 -38 c1 -16 2 -16 15 1 8 11 15 18 16 15 0 -2 2 -12 4 -21 3 -15
-4 -18 -43 -18 -51 0 -89 15 -62 24 14 5 47 12 63 15 4 0 7 -7 7 -16z"/>
<path d="M1578 5485 c-5 -5 -71 -9 -387 -20 -96 -4 -183 -10 -193 -14 -17 -6
-16 -10 14 -46 41 -50 41 -73 0 -124 -27 -33 -39 -41 -67 -41 -39 0 -65 -8
-65 -21 0 -13 130 -8 180 7 25 8 57 14 70 14 105 2 155 8 152 20 -3 11 0 11
12 1 8 -7 20 -10 26 -6 5 3 16 3 23 -2 18 -11 56 -14 202 -13 82 0 132 5 136
12 4 6 12 7 18 4 13 -8 71 14 71 28 0 4 -12 5 -26 2 -14 -4 -35 -4 -46 0 -19
6 -19 6 2 21 16 12 19 18 9 29 -6 8 -10 14 -8 15 2 0 12 2 22 4 11 2 20 5 20
7 1 2 8 13 14 25 7 12 10 30 6 39 -5 14 -8 13 -24 -7 -10 -13 -19 -18 -19 -11
0 6 -7 12 -15 12 -8 0 -15 5 -15 10 0 6 5 10 11 10 5 0 8 4 4 10 -3 5 -12 7
-19 4 -19 -7 -32 16 -15 27 9 6 -4 9 -37 9 -28 0 -53 -2 -56 -5z m89 -61 c-3
-3 -12 -4 -19 -1 -8 3 -5 6 6 6 11 1 17 -2 13 -5z m-205 -46 c-6 -6 -30 -13
-54 -15 -24 -2 -79 -8 -122 -13 -56 -7 -83 -7 -92 1 -23 19 -7 27 51 27 31 -1
57 1 60 3 2 2 40 5 86 6 58 1 78 -2 71 -9z m148 -38 c0 -5 -4 -10 -10 -10 -5
0 -10 5 -10 10 0 6 5 10 10 10 6 0 10 -4 10 -10z m-236 -56 c3 -8 2 -12 -4 -9
-6 3 -10 10 -10 16 0 14 7 11 14 -7z m-234 -9 c0 -8 -7 -15 -15 -15 -26 0 -18
20 13 29 1 1 2 -6 2 -14z m90 5 c0 -5 -5 -10 -11 -10 -5 0 -7 5 -4 10 3 6 8
10 11 10 2 0 4 -4 4 -10z m-40 -10 c-20 -13 -43 -13 -35 0 3 6 16 10 28 10 18
0 19 -2 7 -10z"/>
<path d="M2090 5411 c0 -5 7 -12 16 -15 21 -8 21 -8 21 9 0 8 -9 15 -19 15
-10 0 -18 -4 -18 -9z"/>
<path d="M1780 5380 c0 -11 4 -20 9 -20 5 0 7 9 4 20 -3 11 -7 20 -9 20 -2 0
-4 -9 -4 -20z"/>
<path d="M2263 5273 c-51 -3 -75 -9 -85 -20 -11 -15 -10 -16 12 -10 24 6 24 5
6 -8 -11 -8 -26 -15 -33 -15 -7 0 -13 -4 -13 -8 0 -4 -14 -13 -31 -19 -17 -7
-28 -17 -24 -22 3 -6 1 -11 -4 -11 -6 0 -11 -7 -11 -16 0 -12 6 -15 23 -10 12
3 53 6 90 6 52 0 66 3 61 13 -5 7 -1 7 12 -3 10 -8 21 -16 24 -18 3 -2 -2 -3
-10 -1 -8 1 -32 -2 -53 -9 -21 -6 -44 -9 -51 -6 -18 7 -48 -30 -40 -50 3 -9
16 -16 29 -16 13 0 25 -6 28 -14 3 -9 15 -12 31 -9 14 3 26 1 26 -5 0 -12 -23
-22 -53 -23 -12 0 -16 -3 -9 -6 20 -8 14 -23 -13 -33 -14 -5 -25 -14 -25 -20
0 -5 -7 -10 -15 -10 -8 0 -15 -5 -15 -11 0 -5 -5 -7 -12 -3 -6 4 -8 3 -5 -3 9
-14 -19 -37 -33 -28 -5 3 -10 1 -10 -4 0 -6 14 -11 30 -11 24 0 30 4 30 21 0
15 5 19 15 15 8 -3 15 -1 15 4 0 6 5 10 10 10 21 0 10 -39 -12 -43 -13 -2 -1
-4 27 -4 27 -1 54 2 60 7 5 4 19 4 30 0 15 -5 8 -10 -33 -19 -29 -6 -69 -11
-89 -11 -29 0 -33 -2 -24 -14 8 -10 9 -16 1 -21 -5 -3 -10 -12 -10 -18 0 -8
19 -11 61 -9 43 3 59 1 55 -7 -5 -7 2 -11 18 -11 14 0 28 -5 32 -11 5 -8 8 -8
14 0 3 7 29 14 56 17 63 7 164 35 164 47 0 4 -25 5 -55 2 l-55 -7 -6 30 c-4
21 -13 32 -27 34 -19 3 -21 9 -18 48 1 25 10 53 18 63 15 16 14 17 -10 17 -48
0 -27 27 28 36 11 2 44 6 73 10 82 11 66 30 -23 26 -49 -3 -75 0 -75 7 0 6 7
8 16 4 14 -5 15 -3 3 18 -7 14 -14 19 -17 11 -2 -6 -10 -12 -17 -12 -21 0 -30
22 -14 34 8 6 14 16 15 21 1 36 20 92 33 102 14 11 11 12 -14 11 -16 -1 -62
-4 -102 -5z m-73 -67 c0 -2 -7 -6 -15 -10 -8 -3 -15 -1 -15 4 0 6 7 10 15 10
8 0 15 -2 15 -4z m-10 -39 c-14 -7 -28 -9 -31 -5 -3 5 -13 6 -22 2 -10 -3 -17
-1 -17 5 0 6 19 11 48 11 45 0 46 -1 22 -13z m145 -71 l30 -13 -53 -11 c-29
-7 -60 -12 -67 -12 -8 0 -15 -4 -15 -10 0 -5 -4 -10 -10 -10 -5 0 -10 7 -10
15 0 8 -4 15 -10 15 -5 0 -10 5 -10 12 0 9 3 9 12 0 17 -17 35 -15 58 8 23 23
34 24 75 6z m-15 -76 c-20 -13 -40 -13 -40 0 0 6 12 10 28 10 21 0 24 -2 12
-10z m17 -76 c-3 -3 -12 -4 -19 -1 -8 3 -5 6 6 6 11 1 17 -2 13 -5z m-2 -64
c-4 -6 -1 -18 7 -27 9 -12 9 -15 1 -9 -7 4 -13 2 -13 -3 0 -6 10 -11 22 -11
28 0 12 -17 -21 -22 -29 -4 -38 14 -17 35 8 8 13 17 10 20 -6 6 4 27 12 27 3
0 2 -5 -1 -10z m-35 -80 c0 -5 -4 -10 -10 -10 -5 0 -10 5 -10 10 0 6 5 10 10
10 6 0 10 -4 10 -10z"/>
<path d="M1570 5218 c-52 -3 -185 -9 -295 -12 -207 -7 -285 -13 -285 -23 0 -3
11 -21 25 -39 19 -25 35 -34 63 -37 l37 -4 -39 -1 c-32 -2 -38 -5 -34 -20 3
-10 -7 -32 -24 -52 -22 -27 -40 -37 -80 -45 -28 -6 -53 -16 -56 -23 -3 -9 16
-11 82 -8 47 2 89 7 94 10 12 7 72 13 234 22 96 5 131 4 143 -6 14 -12 67 -11
267 6 54 5 66 9 61 21 -5 12 -17 14 -50 10 -34 -4 -41 -2 -33 8 6 7 24 15 40
19 39 7 41 34 2 28 -16 -2 -33 2 -39 10 -10 11 -2 13 45 13 46 0 57 3 60 17 4
21 -20 48 -42 48 -9 0 -16 5 -16 10 0 6 7 10 15 10 8 0 15 6 15 14 0 8 -10 14
-25 14 -20 0 -24 -4 -20 -19 5 -14 1 -19 -14 -19 -14 0 -23 9 -28 28 l-8 27
-95 -7z m-80 -98 c0 -16 -58 -26 -217 -35 -71 -4 -93 -2 -102 9 -10 12 -5 15
31 20 117 16 288 19 288 6z m90 -40 c0 -5 -5 -10 -11 -10 -5 0 -7 5 -4 10 3 6
8 10 11 10 2 0 4 -4 4 -10z m55 0 c-3 -5 -10 -10 -16 -10 -5 0 -9 5 -9 10 0 6
7 10 16 10 8 0 12 -4 9 -10z m-180 -10 c-3 -5 -11 -10 -16 -10 -6 0 -7 5 -4
10 3 6 11 10 16 10 6 0 7 -4 4 -10z m11 -39 c5 -5 20 -11 34 -14 14 -2 -4 -5
-40 -5 -36 -1 -78 -4 -93 -7 -21 -4 -28 -2 -25 7 3 7 16 13 31 13 14 1 29 4
33 8 10 10 48 9 60 -2z m185 -9 c-7 -2 -18 1 -23 6 -8 8 -4 9 13 5 13 -4 18
-8 10 -11z m-466 -2 c-4 -6 8 -10 27 -11 l33 -1 -40 -9 c-22 -6 -58 -8 -80 -7
l-40 3 35 17 c40 19 74 23 65 8z m144 -4 c-10 -9 -79 -14 -74 -5 4 5 22 9 42
9 20 0 34 -2 32 -4z"/>
<path d="M1519 4956 c-3 -3 -92 -8 -199 -11 -255 -8 -320 -13 -320 -29 0 -7
16 -27 36 -44 20 -18 31 -32 25 -32 -6 0 -11 -7 -11 -15 0 -8 -12 -32 -27 -54
-25 -35 -34 -40 -81 -46 -48 -7 -81 -23 -50 -26 45 -4 82 -10 85 -13 3 -2 33
4 69 14 44 13 73 16 93 10 16 -4 32 -6 35 -3 2 3 19 7 38 9 18 2 55 7 82 10
36 5 50 3 57 -7 6 -10 9 -10 9 -1 0 6 9 12 20 12 11 0 20 -4 20 -10 0 -5 9
-10 20 -10 11 0 20 6 20 13 0 9 2 9 9 -1 11 -18 244 -11 267 9 13 11 18 11 21
2 3 -7 14 -13 26 -12 22 0 22 0 0 9 -13 5 -23 14 -23 19 0 5 -18 9 -40 9 -23
0 -44 2 -47 6 -4 3 5 6 20 6 31 0 65 29 47 40 -19 12 5 21 36 16 33 -6 62 12
42 26 -9 6 -5 7 10 3 16 -5 22 -2 22 10 0 14 -6 16 -26 11 -21 -6 -25 -4 -21
8 4 11 1 16 -11 16 -11 0 -17 -9 -18 -25 -1 -14 2 -22 7 -19 5 3 9 0 9 -6 0
-6 -8 -10 -17 -8 -10 2 -17 10 -16 16 2 7 -2 12 -8 12 -6 0 -9 6 -6 14 4 10
-2 16 -16 18 -12 2 -22 10 -22 18 0 23 -45 40 -106 40 -31 0 -58 -2 -60 -4z
m-39 -97 c0 -16 -50 -30 -109 -30 -31 0 -83 -1 -116 -2 -49 -2 -60 1 -63 15
-3 15 8 18 80 20 179 7 208 6 208 -3z m-330 -13 c0 -11 -19 -15 -25 -6 -3 5 1
10 9 10 9 0 16 -2 16 -4z m530 -23 c0 -5 -5 -15 -10 -23 -8 -12 -10 -11 -10 8
0 12 5 22 10 22 6 0 10 -3 10 -7z m20 -23 c0 -5 -4 -10 -10 -10 -5 0 -10 5
-10 10 0 6 5 10 10 10 6 0 10 -4 10 -10z m-507 -44 c24 -18 7 -24 -60 -22 -50
2 -87 15 -47 17 28 1 67 9 73 14 7 8 14 6 34 -9z m85 2 c8 -8 15 -8 24 0 9 7
19 7 28 2 17 -11 20 -10 -62 -16 -41 -3 -46 -1 -35 11 15 18 29 19 45 3z m362
2 c0 -5 -7 -10 -15 -10 -8 0 -15 5 -15 10 0 6 7 10 15 10 8 0 15 -4 15 -10z
m-237 -7 c-7 -2 -19 -2 -25 0 -7 3 -2 5 12 5 14 0 19 -2 13 -5z"/>
<path d="M2295 4749 c-2 -3 -27 -4 -55 -1 -40 3 -50 0 -51 -12 -1 -9 -3 -20
-4 -26 -1 -5 -3 -14 -4 -19 0 -5 -10 -11 -21 -14 -11 -3 -20 -9 -19 -14 4 -23
-2 -32 -18 -26 -15 5 -16 3 -6 -7 9 -10 10 -17 2 -27 -8 -9 -8 -13 -1 -13 6 0
16 8 21 19 14 24 42 37 34 14 -4 -10 -2 -14 4 -10 6 4 10 -1 9 -11 -1 -12 5
-16 22 -14 12 2 22 -1 22 -6 0 -5 -17 -9 -37 -10 -33 -1 -76 -22 -45 -22 8 0
9 -7 1 -27 l-10 -28 23 25 c20 21 23 22 26 7 2 -11 13 -17 30 -18 l27 -1 -27
-11 c-16 -6 -28 -15 -28 -20 0 -5 8 -6 17 -3 13 5 11 0 -6 -18 -14 -15 -31
-26 -38 -26 -8 0 -12 -4 -8 -9 3 -5 -2 -17 -11 -25 -10 -11 -13 -23 -8 -34 7
-16 7 -16 11 1 4 14 8 16 19 6 15 -12 20 -40 7 -38 -21 3 -76 -4 -60 -8 19 -5
22 -18 7 -28 -15 -9 -2 -25 21 -25 25 0 71 -29 63 -41 -3 -5 4 -9 15 -9 36 0
23 -18 -19 -25 -22 -4 -43 -13 -48 -20 -4 -8 -18 -19 -32 -25 l-25 -10 27 3
c16 3 36 -2 45 -9 16 -12 13 -13 -19 -9 -20 3 -40 0 -43 -5 -3 -5 -12 -7 -20
-3 -8 3 -15 0 -15 -6 0 -15 65 -20 118 -10 25 5 32 3 32 -8 0 -12 -10 -14 -45
-11 -25 2 -45 0 -45 -4 0 -5 5 -8 11 -8 8 0 8 -4 2 -12 -29 -38 -23 -43 58
-43 57 0 82 -4 94 -15 14 -14 12 -16 -12 -15 -16 0 -32 5 -38 11 -6 8 -18 9
-30 4 -11 -5 -14 -9 -7 -9 6 -1 12 -8 12 -17 0 -10 -6 -14 -15 -10 -11 4 -15
-2 -15 -24 0 -30 -13 -40 -25 -20 -4 6 -11 8 -16 4 -6 -3 -1 -14 11 -24 17
-15 18 -19 5 -30 -17 -14 -38 -4 -31 16 4 11 1 12 -13 5 -25 -14 -35 -1 -13
15 9 7 12 14 6 14 -18 0 -40 -30 -27 -38 6 -4 14 -17 17 -30 6 -16 13 -21 26
-17 10 3 21 1 25 -5 3 -5 -3 -10 -14 -10 -24 0 -36 -16 -19 -24 9 -3 8 -8 -6
-17 -27 -17 -2 -29 51 -24 25 3 43 1 43 -5 0 -6 -7 -10 -17 -10 -9 0 -14 -3
-10 -6 7 -8 48 6 43 14 -5 9 52 7 61 -1 3 -4 -8 -10 -26 -13 -18 -4 -35 -13
-38 -20 -3 -8 -18 -14 -35 -14 -22 0 -29 -4 -27 -17 3 -34 -1 -43 -21 -43 -13
0 -18 -5 -14 -15 5 -11 11 -12 24 -5 13 7 21 7 25 -1 9 -14 4 -18 -36 -24 -30
-5 -37 -2 -46 17 -11 23 -11 23 -10 1 1 -26 30 -40 79 -39 35 1 36 1 21 -16
-9 -10 -24 -16 -33 -13 -13 4 -17 0 -17 -18 0 -22 2 -23 78 -24 44 0 79 4 79
9 0 5 6 3 14 -4 21 -20 7 -31 -31 -25 -28 5 -34 3 -29 -9 3 -9 1 -12 -4 -9 -6
3 -16 3 -22 -2 -7 -4 -19 -8 -26 -9 -22 -4 -26 -12 -12 -29 13 -15 4 -19 -37
-18 -7 1 -13 -5 -13 -13 0 -7 -11 -16 -25 -20 -21 -5 -23 -9 -14 -20 8 -10 15
-11 24 -4 6 5 15 7 19 3 3 -4 -6 -12 -21 -19 -20 -9 -23 -13 -10 -13 11 -1 15
-6 11 -12 -3 -6 0 -15 7 -20 11 -7 10 -9 -3 -9 -11 0 -18 -8 -18 -19 0 -23 23
-30 65 -20 17 4 73 12 126 18 131 14 130 14 115 59 -9 24 -21 39 -37 43 -13 4
-18 7 -11 8 18 1 15 19 -5 24 -14 4 -13 5 4 6 19 1 21 4 13 32 -7 23 -6 31 6
36 25 9 15 23 -18 24 -30 1 -29 2 12 11 57 13 150 49 150 59 0 4 -12 1 -27 -7
-16 -7 -42 -14 -59 -14 -28 0 -31 3 -26 25 3 17 -1 27 -12 31 -9 3 -16 13 -16
20 0 8 -7 17 -16 21 -8 3 -13 12 -10 19 3 8 0 14 -6 14 -5 0 2 16 16 35 16 20
22 35 15 35 -29 0 13 24 63 37 29 8 57 18 62 23 13 13 -9 13 -49 2 -39 -11
-55 -5 -55 20 0 11 -9 28 -20 38 -25 22 -31 97 -8 114 8 6 13 16 11 22 -2 6
21 19 51 28 29 9 62 24 72 32 18 15 18 15 -1 9 -11 -3 -41 -9 -67 -12 l-48 -6
0 32 c0 31 -1 32 -37 26 -29 -4 -33 -3 -17 4 18 8 21 15 15 43 -8 34 2 62 29
86 13 11 11 13 -12 7 -16 -3 -28 -2 -28 3 0 5 25 14 56 21 67 15 134 42 118
48 -6 2 -31 -1 -55 -6 -28 -6 -45 -7 -47 0 -2 5 -9 6 -14 3 -7 -4 -8 -2 -4 5
10 16 -3 51 -20 51 -8 0 -15 6 -15 13 -5 48 -3 72 7 93 13 24 12 24 -36 24
-27 0 -52 5 -55 10 -4 6 15 10 52 10 63 -1 174 28 180 47 3 9 -5 9 -29 2 -18
-5 -47 -9 -65 -9 -27 0 -31 3 -28 22 3 13 -4 31 -17 45 -28 29 -31 76 -7 102
11 11 19 22 19 25 0 7 -81 2 -85 -5z m-25 -27 c0 -4 -9 -13 -20 -20 -17 -10
-20 -10 -20 2 0 8 8 17 18 19 9 3 18 5 20 6 1 0 2 -2 2 -7z m70 -92 c0 -5 -4
-10 -8 -10 -5 0 -9 -6 -9 -12 0 -7 -4 -22 -8 -33 -5 -14 -4 -16 3 -6 6 8 12 9
16 3 8 -13 -13 -20 -36 -14 -22 5 -23 16 -3 32 8 7 12 17 9 22 -4 6 0 14 7 19
19 12 29 11 29 -1z m-50 -21 c0 -9 -48 -9 -64 0 -14 7 26 19 46 13 10 -2 18
-8 18 -13z m-60 -79 c0 -5 -2 -10 -4 -10 -3 0 -8 5 -11 10 -3 6 -1 10 4 10 6
0 11 -4 11 -10z m65 -110 c-27 -12 -43 -12 -25 0 8 5 22 9 30 9 10 0 8 -3 -5
-9z m51 -35 c-3 -8 -1 -15 4 -15 16 0 12 -17 -5 -24 -8 -3 -28 -3 -45 0 -25 5
-27 8 -15 20 18 18 25 18 25 -2 0 -8 5 -12 10 -9 6 3 10 15 10 26 0 10 5 19
11 19 6 0 9 -7 5 -15z m-116 -30 c0 -8 -4 -15 -10 -15 -5 0 -7 7 -4 15 4 8 8
15 10 15 2 0 4 -7 4 -15z m33 -71 c-3 -9 0 -20 8 -25 11 -7 9 -9 -8 -9 -27 0
-35 21 -14 37 21 16 21 16 14 -3z m-38 -144 c3 -5 -1 -10 -9 -10 -9 0 -16 5
-16 10 0 6 4 10 9 10 6 0 13 -4 16 -10z m60 -30 c-3 -5 0 -10 7 -11 7 0 2 -5
-11 -10 -29 -12 -38 -5 -20 15 16 17 34 22 24 6z m-61 -249 c17 -19 17 -19 -5
-14 -15 4 -20 3 -15 -5 4 -7 1 -12 -7 -12 -10 0 -13 8 -9 25 5 30 13 31 36 6z
m96 -6 c0 -10 -10 -15 -26 -15 -22 0 -25 2 -14 15 7 8 19 15 26 15 8 0 14 -7
14 -15z m5 -115 c-3 -5 -10 -10 -16 -10 -5 0 -9 5 -9 10 0 6 7 10 16 10 8 0
12 -4 9 -10z m-15 -80 c-8 -5 -19 -10 -25 -10 -5 0 -3 5 5 10 8 5 20 10 25 10
6 0 3 -5 -5 -10z m-90 -30 c-19 -13 -30 -13 -30 0 0 6 10 10 23 10 18 0 19 -2
7 -10z m140 -25 c0 -9 -11 -13 -30 -13 -16 1 -27 5 -24 10 3 5 12 7 20 4 8 -3
14 1 14 10 0 8 5 12 10 9 6 -3 10 -12 10 -20z m-161 -246 c-20 -20 -49 -20
-49 0 0 10 21 18 53 20 15 1 15 -1 -4 -20z m146 -9 c3 -5 -3 -10 -14 -10 -12
0 -21 5 -21 10 0 6 6 10 14 10 8 0 18 -4 21 -10z m-45 -4 c0 -11 -19 -15 -25
-6 -3 5 1 10 9 10 9 0 16 -2 16 -4z"/>
<path d="M1519 4696 c-8 -8 -185 -16 -361 -16 -93 0 -168 -4 -168 -9 0 -5 18
-25 40 -45 22 -20 36 -36 30 -36 -5 0 -10 -9 -10 -21 0 -11 -12 -38 -27 -59
-27 -38 -54 -50 -109 -50 -13 0 -24 -4 -24 -9 0 -5 30 -11 68 -13 50 -4 71 -1
84 10 10 8 26 12 37 9 11 -3 28 1 38 9 17 12 16 13 -7 14 -24 1 -24 1 -6 15
12 9 24 11 30 6 7 -6 21 -4 36 4 33 19 41 18 33 -1 -5 -14 -3 -15 15 -5 27 15
32 14 32 -4 0 -10 -11 -15 -37 -16 -21 -1 -41 -1 -45 0 -5 0 -8 -4 -8 -10 0
-14 77 -4 97 13 7 6 37 12 66 15 47 4 56 1 83 -24 l29 -28 135 8 c74 4 144 9
155 11 11 2 32 4 47 5 19 1 26 5 22 15 -4 11 -12 13 -29 6 -12 -5 -45 -5 -71
-1 -47 6 -48 8 -26 20 22 12 22 14 8 36 -14 21 -14 23 7 29 35 9 43 6 24 -8
-16 -12 -16 -14 0 -27 13 -11 17 -11 20 -1 3 6 10 12 16 12 7 0 27 15 44 33
l33 33 -43 -3 c-37 -2 -40 0 -24 11 15 12 15 14 3 19 -9 4 -18 2 -21 -4 -9
-14 -27 1 -21 17 3 9 -2 14 -14 14 -11 0 -19 6 -17 13 1 8 -21 13 -78 15 -45
1 -83 1 -86 -2z m-59 -102 c0 -23 -219 -39 -277 -20 -47 15 -20 25 75 29 164
5 202 4 202 -9z m65 6 c3 -5 1 -10 -4 -10 -6 0 -11 5 -11 10 0 6 2 10 4 10 3
0 8 -4 11 -10z m-380 -10 c4 -6 -6 -10 -22 -9 -25 0 -26 1 -8 9 11 5 21 9 22
9 1 1 5 -3 8 -9z m615 -20 c0 -5 -7 -10 -15 -10 -8 0 -15 5 -15 10 0 6 7 10
15 10 8 0 15 -4 15 -10z m-370 -24 c0 -3 -4 -8 -10 -11 -5 -3 -10 -1 -10 4 0
6 5 11 10 11 6 0 10 -2 10 -4z m157 -2 c-3 -3 -12 -4 -19 -1 -8 3 -5 6 6 6 11
1 17 -2 13 -5z m-237 -28 c0 -2 -7 -6 -15 -10 -8 -3 -15 -1 -15 4 0 6 7 10 15
10 8 0 15 -2 15 -4z m283 -18 c-2 -5 -13 -8 -23 -8 -10 0 -21 3 -23 8 -3 4 8
7 23 7 15 0 26 -3 23 -7z"/>
<path d="M2100 4660 c0 -5 5 -10 10 -10 6 0 10 5 10 10 0 6 -4 10 -10 10 -5 0
-10 -4 -10 -10z"/>
<path d="M2040 4636 c0 -2 9 -6 20 -9 11 -3 20 -1 20 4 0 5 -9 9 -20 9 -11 0
-20 -2 -20 -4z"/>
<path d="M1336 4471 c5 -5 19 -12 32 -16 16 -5 22 -2 22 9 0 11 -10 16 -32 16
-19 0 -28 -4 -22 -9z"/>
<path d="M1833 4473 c9 -2 23 -2 30 0 6 3 -1 5 -18 5 -16 0 -22 -2 -12 -5z"/>
<path d="M1619 4436 c-6 -5 -344 -16 -504 -16 l-130 0 40 -40 c46 -45 62 -48
234 -36 75 5 107 3 118 -6 11 -9 16 -9 23 3 7 10 12 11 21 2 22 -22 -2 -35
-57 -31 -45 4 -53 2 -57 -14 -5 -19 -38 -15 -34 4 1 5 -32 12 -73 15 -143 9
-145 9 -145 -8 0 -10 -17 -35 -37 -58 -33 -37 -41 -41 -83 -41 -31 0 -45 -4
-43 -12 5 -15 148 -20 165 -6 7 5 69 11 138 12 69 2 128 6 132 10 5 5 -96 9
-217 8 -19 -1 -27 2 -17 4 9 3 17 9 17 14 0 4 27 6 61 3 46 -5 63 -3 70 8 7
12 12 12 30 0 20 -12 24 -11 41 10 19 23 19 23 8 2 -9 -19 -8 -23 5 -23 9 0
13 5 10 10 -8 13 1 13 25 0 12 -6 21 -6 25 -1 3 6 17 6 36 -1 29 -10 63 -7
103 8 14 5 17 4 12 -4 -5 -9 0 -9 20 -2 15 6 40 8 56 5 19 -5 28 -3 28 5 0 10
3 10 14 1 24 -20 59 4 52 35 -5 18 -2 24 9 24 9 0 14 -3 12 -7 -3 -5 6 -9 19
-9 13 -1 24 2 24 7 0 5 -7 9 -15 9 -18 0 -19 12 -2 29 10 10 9 11 -5 6 -13 -5
-18 -2 -18 9 0 9 -5 16 -12 16 -6 0 -9 3 -5 6 10 10 -45 54 -68 54 -12 0 -24
-2 -26 -4z m94 -83 c-7 -2 -19 -2 -25 0 -7 3 -2 5 12 5 14 0 19 -2 13 -5z
m-253 -23 c0 -11 -4 -20 -10 -20 -5 0 -10 9 -10 20 0 11 5 20 10 20 6 0 10 -9
10 -20z m40 0 c0 -5 -2 -10 -4 -10 -3 0 -8 5 -11 10 -3 6 -1 10 4 10 6 0 11
-4 11 -10z m-110 -50 c0 -5 -5 -10 -11 -10 -5 0 -7 5 -4 10 3 6 8 10 11 10 2
0 4 -4 4 -10z m40 0 c0 -5 -4 -10 -10 -10 -5 0 -10 5 -10 10 0 6 5 10 10 10 6
0 10 -4 10 -10z m40 6 c0 -3 -4 -8 -10 -11 -5 -3 -10 -1 -10 4 0 6 5 11 10 11
6 0 10 -2 10 -4z"/>
<path d="M2065 4370 c-3 -5 3 -10 14 -10 12 0 21 5 21 10 0 6 -6 10 -14 10 -8
0 -18 -4 -21 -10z"/>
<path d="M1778 4343 c7 -3 16 -2 19 1 4 3 -2 6 -13 5 -11 0 -14 -3 -6 -6z"/>
<path d="M1795 4316 c-11 -8 -14 -15 -8 -19 6 -4 16 0 23 8 17 21 8 28 -15 11z"/>
<path d="M1558 4229 c-10 -5 -18 -7 -18 -3 0 3 -6 1 -14 -5 -8 -7 -16 -8 -19
-4 -3 5 -26 7 -52 5 -45 -4 -46 -5 -25 -19 19 -13 44 -15 154 -9 118 7 153 9
221 17 11 1 -2 5 -30 9 -27 4 -51 3 -53 -1 -2 -4 -14 -4 -27 1 -14 5 -37 9
-52 8 -15 0 -37 2 -48 6 -11 3 -28 1 -37 -5z"/>
<path d="M1358 4213 c7 -3 16 -2 19 1 4 3 -2 6 -13 5 -11 0 -14 -3 -6 -6z"/>
<path d="M1027 4162 l-28 -3 31 -35 c32 -37 35 -61 10 -104 -8 -14 -13 -28
-12 -32 1 -4 -5 -5 -13 -2 -8 4 -17 -1 -21 -10 -4 -11 -19 -16 -49 -16 -58 0
-66 -16 -14 -25 78 -13 124 -13 148 2 13 8 36 13 53 11 16 -3 31 -1 34 4 3 4
-11 8 -31 8 -25 0 -35 4 -32 13 2 7 21 12 45 12 26 0 42 5 42 12 0 6 4 15 10
18 5 3 7 0 5 -7 -4 -11 25 -14 147 -15 223 -3 248 -4 248 -14 0 -5 -8 -9 -17
-9 -10 0 -35 -3 -55 -6 -33 -6 -38 -4 -38 12 0 12 -3 15 -8 8 -4 -7 -27 -16
-52 -22 -25 -5 -37 -10 -27 -11 9 -1 17 -5 17 -11 0 -6 27 -10 60 -10 33 0 60
-4 60 -10 0 -12 -107 -15 -347 -12 -95 2 -177 0 -183 -3 -5 -3 7 -22 28 -41
l37 -34 208 1 c115 0 211 -2 214 -5 15 -15 -15 -23 -84 -24 -43 -1 -79 -2 -80
-3 -4 -2 -52 -1 -55 1 -2 0 -39 3 -83 5 -44 3 -92 7 -107 11 -22 4 -28 2 -28
-11 0 -47 -63 -95 -125 -95 -25 0 -35 -4 -33 -12 6 -17 122 -30 154 -17 14 5
39 9 55 9 40 0 37 20 -3 21 l-33 1 28 10 c22 8 26 13 16 24 -9 12 -6 14 21 14
22 0 31 -4 27 -13 -3 -9 13 -11 72 -7 42 4 126 2 186 -2 61 -4 121 -8 135 -9
36 -1 114 13 120 21 8 11 72 21 65 10 -7 -12 15 -13 31 -2 6 4 10 21 10 37 -1
18 5 33 14 37 9 4 3 7 -18 7 -20 1 -31 6 -30 14 2 7 -10 13 -29 15 -37 4 -37
5 -23 33 13 24 3 25 -22 2 -15 -14 -19 -14 -16 -3 2 12 -7 14 -42 13 -25 -2
-52 0 -60 3 -25 9 9 24 56 24 68 0 164 12 164 21 0 4 -13 6 -30 4 -17 -2 -30
1 -30 7 0 7 -5 7 -14 -1 -11 -9 -15 -9 -20 1 -5 10 -7 10 -12 1 -3 -7 -10 -13
-15 -13 -6 0 -7 5 -3 11 4 7 0 9 -14 5 -11 -4 -23 -2 -27 4 -3 5 0 10 8 10 7
0 20 11 27 25 11 21 20 25 56 23 26 -1 41 -5 37 -11 -3 -6 -1 -7 5 -3 7 4 12
14 12 22 0 7 9 19 20 26 25 16 25 19 -3 52 -22 26 -25 27 -41 11 -17 -18 -24
-15 -64 23 -7 6 -28 12 -45 12 -22 0 -28 -3 -18 -9 9 -6 11 -14 4 -26 -10 -16
-12 -16 -34 6 l-24 24 -250 0 c-137 0 -263 -1 -278 -3z m491 -77 c-4 -4 -22
-8 -40 -10 -18 -1 -44 -6 -58 -9 -14 -4 -52 -9 -84 -12 -32 -2 -63 -7 -67 -10
-5 -3 -9 -1 -9 5 0 5 -16 8 -35 7 -20 -2 -38 1 -41 5 -3 5 -29 10 -57 11 l-52
1 65 6 c97 9 385 13 378 6z m232 -27 c0 -4 -12 -8 -27 -8 -19 0 -24 3 -15 8
17 11 42 11 42 0z m-20 -218 c0 -5 -5 -10 -11 -10 -5 0 -7 5 -4 10 3 6 8 10
11 10 2 0 4 -4 4 -10z m-87 -7 c-7 -2 -19 -2 -25 0 -7 3 -2 5 12 5 14 0 19 -2
13 -5z m-80 -10 c-7 -2 -19 -2 -25 0 -7 3 -2 5 12 5 14 0 19 -2 13 -5z m207
-3 c0 -5 -7 -10 -15 -10 -8 0 -15 5 -15 10 0 6 7 10 15 10 8 0 15 -4 15 -10z
m-20 -31 c0 -11 -27 -12 -34 0 -3 4 -3 11 0 14 8 8 34 -3 34 -14z"/>
<path d="M1820 4100 c0 -5 5 -10 11 -10 5 0 7 5 4 10 -3 6 -8 10 -11 10 -2 0
-4 -4 -4 -10z"/>
<path d="M1795 4060 c-4 -6 5 -10 20 -10 15 0 24 4 20 10 -3 6 -12 10 -20 10
-8 0 -17 -4 -20 -10z"/>
<path d="M2145 3990 c-3 -5 3 -10 14 -10 11 0 23 5 26 10 3 6 -3 10 -14 10
-11 0 -23 -4 -26 -10z"/>
<path d="M1200 3960 c-20 -6 -15 -8 24 -9 27 -1 46 2 42 6 -10 10 -38 11 -66
3z"/>
<path d="M1305 3960 c-3 -5 3 -10 15 -10 12 0 18 5 15 10 -3 6 -10 10 -15 10
-5 0 -12 -4 -15 -10z"/>
<path d="M1825 3960 c3 -5 8 -10 11 -10 2 0 4 5 4 10 0 6 -5 10 -11 10 -5 0
-7 -4 -4 -10z"/>
<path d="M1647 3714 c-1 -2 -31 -3 -67 -4 -113 -3 -160 -11 -160 -26 0 -12 22
-13 123 -10 166 5 282 17 265 27 -8 4 -26 6 -41 5 -15 -2 -27 0 -27 3 0 5 -88
10 -93 5z"/>
<path d="M1220 3700 c0 -5 10 -10 23 -10 18 0 19 2 7 10 -19 13 -30 13 -30 0z"/>
<path d="M1288 3693 c7 -3 16 -2 19 1 4 3 -2 6 -13 5 -11 0 -14 -3 -6 -6z"/>
<path d="M1338 3693 c7 -3 16 -2 19 1 4 3 -2 6 -13 5 -11 0 -14 -3 -6 -6z"/>
<path d="M1559 3656 c-3 -4 -129 -6 -280 -7 l-274 0 40 -38 41 -38 202 1 c204
1 255 -3 216 -18 -25 -10 -62 -17 -94 -18 -106 -1 -210 4 -215 12 -4 6 -36 10
-72 10 -53 0 -64 -3 -60 -15 11 -28 -94 -98 -131 -88 -26 6 -29 -13 -4 -25 25
-13 241 -7 255 7 8 8 -1 11 -36 11 -26 0 -47 4 -47 9 0 22 13 39 26 34 8 -3
14 0 14 7 0 6 5 8 11 5 33 -21 550 -34 557 -14 2 5 12 9 22 9 23 0 35 16 18
24 -7 2 1 4 17 3 39 -1 63 12 44 24 -12 8 -11 11 1 19 12 8 12 10 -5 8 -39 -3
-52 2 -52 20 0 9 5 20 11 24 16 11 -1 22 -37 25 -18 1 -61 5 -97 8 -36 4 -68
4 -71 1z m41 -90 c0 -2 -7 -6 -15 -10 -8 -3 -15 -1 -15 4 0 6 7 10 15 10 8 0
15 -2 15 -4z m118 -38 c8 -10 4 -13 -14 -13 -24 0 -30 6 -17 18 10 10 19 8 31
-5z"/>
<path d="M1834 3559 c-3 -5 6 -9 20 -9 31 0 34 6 6 13 -11 3 -23 1 -26 -4z"/>
<path d="M1528 3452 c-50 -2 -68 -7 -68 -17 0 -8 13 -15 33 -17 35 -3 249 11
255 17 2 2 1 9 -3 15 -5 8 -11 8 -19 1 -7 -6 -16 -7 -20 -3 -8 7 -67 9 -178 4z"/>
<path d="M1225 3440 c-3 -6 5 -10 19 -10 32 0 42 15 11 18 -13 1 -27 -3 -30
-8z"/>
<path d="M1396 3442 c-3 -6 7 -12 22 -15 25 -5 41 -2 31 7 -12 10 -48 16 -53
8z"/>
<path d="M1298 3433 c7 -3 16 -2 19 1 4 3 -2 6 -13 5 -11 0 -14 -3 -6 -6z"/>
<path d="M2128 3423 c7 -3 16 -2 19 1 4 3 -2 6 -13 5 -11 0 -14 -3 -6 -6z"/>
<path d="M6040 3414 c-145 -27 -416 -65 -530 -75 -63 -6 -131 -12 -150 -14
-19 -2 -157 -9 -306 -15 -196 -8 -288 -8 -335 0 -120 21 -194 31 -258 36 -36
2 -83 10 -105 15 -90 24 -124 23 -165 -5 -35 -24 -94 -92 -162 -186 -41 -56
-119 -193 -119 -209 0 -8 -6 -22 -13 -30 -7 -9 -27 -47 -44 -86 -17 -38 -42
-95 -56 -125 -60 -134 -173 -413 -203 -503 -42 -124 -62 -225 -69 -357 l-7
-105 21 33 c23 35 27 57 10 46 -7 -4 -9 0 -6 12 3 11 9 42 13 69 l8 50 8 -50
c4 -27 9 -55 10 -62 1 -7 5 -10 10 -7 5 3 5 10 2 16 -4 7 -2 8 4 4 19 -11 14
-34 -8 -41 -11 -3 -20 -11 -20 -16 0 -6 5 -7 10 -4 6 3 10 1 10 -4 0 -7 7 -7
20 1 11 7 20 20 20 28 0 9 6 22 13 29 10 11 9 13 -5 8 -10 -4 -18 -2 -18 3 0
6 5 10 10 10 6 0 10 6 10 14 0 8 5 18 12 22 8 5 9 2 5 -9 -8 -22 1 -22 21 1
10 9 14 13 10 8 -13 -16 -9 -31 4 -18 16 16 44 15 62 -3 18 -19 25 -9 21 33
-2 37 -15 56 -15 24 0 -12 -4 -22 -9 -22 -5 0 -18 -3 -28 -6 -17 -5 -17 -5 1
10 11 9 18 28 18 51 0 25 6 38 19 46 10 5 19 15 19 21 0 14 90 122 96 115 9
-9 -10 -45 -21 -41 -15 6 -28 -56 -15 -70 5 -5 -1 -17 -13 -27 -12 -10 -17
-18 -12 -19 23 0 40 21 40 51 0 19 6 34 14 37 10 3 12 0 8 -12 -4 -9 -2 -16 3
-16 6 0 10 4 10 9 0 18 45 80 58 81 10 0 9 -7 -3 -30 -23 -45 -20 -61 10 -47
18 9 23 18 21 39 -2 15 2 29 8 31 7 3 4 10 -6 18 -13 11 -15 18 -7 29 9 13 10
12 5 -2 -9 -29 12 -20 29 12 18 34 30 40 22 10 -3 -14 -1 -18 6 -13 17 11 37
12 37 3 0 -4 -7 -11 -16 -14 -8 -3 -13 -10 -10 -15 4 -5 -5 -18 -19 -29 -14
-11 -25 -28 -25 -37 0 -14 3 -15 15 -5 8 7 22 9 31 6 13 -5 15 -2 10 19 -4 14
-2 25 4 25 5 0 10 -5 10 -12 0 -6 11 -1 25 12 14 13 22 26 19 29 -3 3 -12 -3
-20 -13 -7 -11 -16 -17 -20 -14 -9 10 15 48 30 48 8 0 17 7 20 16 5 12 2 15
-10 10 -14 -5 -15 -4 -4 9 17 20 1 19 -22 -2 -10 -9 -21 -13 -24 -10 -4 3 8
18 26 33 20 18 30 33 27 45 -4 13 5 24 30 39 37 22 58 26 48 10 -14 -23 5 -8
24 19 l21 29 -25 0 c-14 0 -25 -4 -25 -8 0 -3 -12 -13 -27 -20 -16 -8 -36 -20
-45 -28 -15 -12 -16 -12 -12 5 3 10 15 23 26 28 12 6 24 17 26 25 4 11 -1 11
-22 -4 -33 -21 -40 -17 -27 15 5 13 10 18 10 11 1 -8 9 -10 26 -6 14 3 25 2
25 -3 0 -10 40 -10 56 0 5 3 16 2 23 -3 11 -6 10 -13 -8 -36 -12 -15 -19 -30
-16 -33 7 -7 54 50 55 66 0 6 10 13 22 15 12 2 28 14 35 28 7 14 22 33 34 43
12 9 17 17 11 17 -5 0 -15 -7 -22 -15 -7 -8 -17 -15 -23 -15 -15 0 33 49 55
56 17 5 56 64 43 64 -11 0 -69 -45 -96 -75 -15 -16 -30 -27 -34 -23 -14 13
137 138 166 138 10 -1 8 -6 -6 -16 -11 -8 -19 -20 -17 -25 1 -5 -2 -18 -8 -28
-8 -16 -7 -18 11 -14 12 3 18 11 15 19 -3 7 2 17 10 22 9 5 15 12 15 15 -3 22
2 27 27 27 34 0 93 47 73 59 -17 11 1 23 22 15 8 -3 18 -1 22 5 3 6 -1 11 -9
11 -9 0 -16 5 -16 10 0 6 9 10 21 10 13 0 18 -4 13 -12 -5 -8 0 -9 15 -5 15 3
21 1 18 -6 -2 -7 -11 -11 -21 -9 -9 2 -16 -2 -16 -8 0 -5 7 -10 16 -10 11 0
14 -5 10 -16 -3 -9 -6 -17 -6 -20 0 -2 -6 -2 -12 0 -7 1 -10 1 -6 -1 14 -8 -5
-68 -30 -95 -14 -16 -20 -28 -14 -28 17 0 15 -20 -9 -64 -11 -21 -18 -43 -16
-49 5 -15 71 123 86 180 6 23 16 45 21 48 6 3 10 15 10 25 0 10 7 25 15 34 8
8 12 21 9 29 -3 8 -1 18 5 22 19 11 24 -24 7 -50 -9 -13 -16 -31 -16 -40 0 -9
-11 -41 -25 -71 -14 -30 -25 -60 -25 -66 0 -6 -21 -53 -46 -105 -25 -51 -47
-101 -49 -111 -2 -9 -16 -42 -30 -72 -15 -30 -50 -102 -78 -160 -67 -139 -128
-240 -196 -325 -47 -59 -72 -103 -84 -149 -1 -5 3 -11 10 -13 7 -2 15 7 19 21
4 17 11 23 22 19 11 -5 13 -3 7 6 -5 10 -2 11 14 6 26 -8 27 3 4 21 -17 12
-17 13 -1 14 9 0 20 -5 23 -10 10 -16 27 0 22 21 -4 15 0 19 18 19 13 0 28 -7
33 -16 8 -15 12 -15 33 -1 13 8 41 14 61 12 42 -2 46 -1 75 42 16 22 19 33 10
36 -9 4 -9 7 0 14 6 5 14 20 16 33 15 80 38 179 47 207 8 22 8 38 2 50 -8 13
-5 22 12 38 12 11 25 29 29 40 7 18 7 18 -11 2 -24 -22 -52 -22 -52 1 0 13 2
14 9 3 6 -9 11 -10 15 -2 4 6 4 11 -1 11 -4 0 0 5 9 10 13 8 15 16 7 43 -11
40 -11 47 0 47 5 0 12 -8 14 -17 4 -15 6 -14 12 5 6 19 10 20 23 10 13 -11 14
-10 10 2 -2 8 -14 20 -25 25 -16 9 -18 15 -10 35 5 14 15 41 22 60 7 19 19 50
25 68 7 17 19 32 27 32 8 0 11 5 8 10 -3 6 -2 10 4 10 6 0 8 12 5 30 -4 16 -2
36 4 42 5 7 13 24 17 38 4 14 13 39 20 55 17 38 47 157 44 170 -1 6 0 17 4 25
11 28 25 85 43 172 16 78 20 85 36 77 14 -7 18 -6 18 6 0 8 -5 15 -11 15 -5 0
-7 5 -4 10 4 6 10 8 15 5 17 -10 70 24 64 40 -4 8 1 26 9 39 15 22 19 23 149
21 73 -1 133 -3 133 -4 0 -2 32 -8 70 -13 12 -2 19 2 17 10 -1 8 2 11 8 7 6
-4 8 -16 4 -28 -6 -19 -5 -20 8 -10 8 7 18 10 21 6 4 -3 14 0 23 8 19 16 118
24 109 9 -3 -6 -19 -10 -35 -10 -15 0 -30 -5 -32 -10 -2 -6 -19 -16 -38 -23
-54 -19 -142 -72 -174 -106 -17 -17 -36 -31 -43 -31 -7 0 -13 -4 -13 -10 0
-16 11 -12 49 18 69 53 205 128 225 123 6 -1 19 2 30 8 44 21 93 27 277 36 96
5 139 4 143 -4 4 -6 20 -11 36 -11 16 0 31 -4 34 -9 3 -5 17 -8 32 -8 14 0 29
-5 33 -10 3 -6 17 -14 30 -18 43 -13 234 -148 250 -177 9 -15 21 -28 26 -28 6
0 26 -23 45 -51 19 -29 52 -77 73 -108 44 -65 126 -232 151 -309 10 -29 20
-52 22 -49 6 6 -40 132 -106 287 -73 174 -162 346 -235 455 -56 84 -164 206
-180 204 -6 -1 -44 -8 -85 -15z m-485 -134 c3 -5 1 -10 -4 -10 -6 0 -11 5 -11
10 0 6 2 10 4 10 3 0 8 -4 11 -10z m-745 -234 c0 -2 -7 -9 -15 -16 -13 -11
-14 -10 -9 4 5 14 24 23 24 12z m-90 -56 c0 -5 -5 -10 -11 -10 -5 0 -7 5 -4
10 3 6 8 10 11 10 2 0 4 -4 4 -10z m-275 -10 c-3 -5 -12 -10 -18 -10 -7 0 -6
4 3 10 19 12 23 12 15 0z m20 -55 c-52 -32 -70 -32 -25 0 19 13 42 24 50 24 8
1 -3 -10 -25 -24z m270 -15 c-3 -5 -12 -10 -18 -10 -7 0 -6 4 3 10 19 12 23
12 15 0z m35 -40 c-8 -15 -8 -25 -1 -34 12 -14 5 -26 -16 -26 -15 0 -18 36 -3
45 6 4 7 11 4 17 -4 6 0 14 7 19 19 11 22 4 9 -21z m-163 14 c-3 -3 -12 -4
-19 -1 -8 3 -5 6 6 6 11 1 17 -2 13 -5z m38 -24 c-3 -5 -16 -10 -29 -10 -12 0
-31 -7 -42 -15 -22 -17 -38 -20 -29 -5 8 13 64 38 88 39 10 1 15 -3 12 -9z
m-130 -10 c3 -6 -4 -10 -17 -10 -18 0 -20 2 -8 10 19 12 18 12 25 0z m169 2
c2 -4 -7 -12 -20 -19 -26 -12 -32 -5 -12 15 14 14 25 15 32 4z m-232 -24 c-7
-7 -12 -8 -12 -2 0 6 3 14 7 17 3 4 9 5 12 2 2 -3 -1 -11 -7 -17z m218 -29
c-7 -11 -14 -19 -16 -16 -7 7 7 37 17 37 6 0 5 -9 -1 -21z m-145 2 c-19 -8
-19 -8 0 -20 18 -11 18 -12 -5 -6 -14 4 -31 7 -37 7 -7 1 -13 3 -13 5 0 6 44
22 60 22 9 0 8 -3 -5 -8z m61 -6 c-11 -8 -22 -12 -25 -9 -6 6 19 24 34 24 6
-1 1 -7 -9 -15z m52 3 c-6 -18 -25 -21 -25 -3 0 8 7 15 15 15 7 0 12 -5 10
-12z m-323 -33 c-16 -14 -34 -25 -40 -25 -5 1 4 12 20 25 17 14 35 25 40 25 6
-1 -3 -12 -20 -25z m70 15 c-27 -12 -35 -12 -35 0 0 6 12 10 28 9 24 0 25 -1
7 -9z m315 1 c0 -5 -7 -12 -16 -15 -24 -9 -28 -7 -14 9 14 17 30 20 30 6z
m-296 -26 c-10 -8 -23 -14 -29 -14 -5 0 -1 6 9 14 11 8 24 15 30 15 5 0 1 -7
-10 -15z m50 0 c-4 -8 -8 -15 -10 -15 -2 0 -4 7 -4 15 0 8 4 15 10 15 5 0 7
-7 4 -15z m110 -16 c-10 -11 -20 -16 -22 -10 -2 5 -10 7 -18 4 -8 -3 -14 0
-14 7 0 7 8 10 20 7 11 -3 23 -1 26 4 3 5 10 9 16 9 6 0 3 -9 -8 -21z m-71 -6
c-7 -2 -19 -2 -25 0 -7 3 -2 5 12 5 14 0 19 -2 13 -5z m-133 -13 c0 -5 -5 -10
-11 -10 -5 0 -7 5 -4 10 3 6 8 10 11 10 2 0 4 -4 4 -10z m19 -38 c-6 -18 -15
-32 -20 -32 -4 0 -5 8 -2 18 6 15 5 15 -10 3 -10 -8 -17 -9 -17 -3 0 6 9 13
19 17 11 3 22 13 25 22 12 30 16 6 5 -25z m150 35 c-2 -1 -13 -9 -24 -17 -19
-14 -19 -14 -6 3 7 9 18 17 24 17 6 0 8 -1 6 -3z m-335 -31 c-3 -9 -12 -16
-20 -16 -11 0 -10 4 3 20 19 22 26 21 17 -4z m366 8 c-20 -23 -51 -38 -44 -20
3 7 15 18 27 24 30 15 31 14 17 -4z m-245 -14 c-3 -5 -12 -10 -18 -10 -7 0 -6
4 3 10 19 12 23 12 15 0z m104 -11 c-11 -11 -23 -18 -26 -15 -7 7 20 35 35 36
7 0 3 -9 -9 -21z m-170 8 c-2 -1 -15 -11 -28 -22 l-24 -20 14 23 c8 12 20 22
28 22 8 0 12 -1 10 -3z m91 -43 c0 -7 -7 -14 -15 -18 -8 -3 -15 -1 -15 4 0 6
-3 9 -7 9 -21 -3 -53 2 -53 9 0 4 20 7 45 7 28 1 45 -3 45 -11z m-240 -9 c0
-8 -4 -15 -10 -15 -5 0 -10 7 -10 15 0 8 5 15 10 15 6 0 10 -7 10 -15z m270
-15 c-19 -17 -38 -30 -44 -30 -9 0 64 58 74 59 3 0 -11 -13 -30 -29z m-226
-16 c3 -8 2 -12 -4 -9 -6 3 -10 10 -10 16 0 14 7 11 14 -7z m145 -49 c-9 -33
-85 -123 -95 -113 -2 3 2 11 11 18 8 7 15 16 15 21 0 4 11 20 25 35 14 15 28
38 31 51 4 13 10 23 14 23 5 0 4 -16 -1 -35z m-229 21 c0 -2 -8 -10 -17 -17
-16 -13 -17 -12 -4 4 13 16 21 21 21 13z m50 -1 c0 -2 -10 -9 -22 -15 -22 -11
-22 -10 -4 4 21 17 26 19 26 11z m133 -34 c-6 -22 -43 -60 -43 -44 0 6 7 16
15 23 8 7 15 19 15 26 0 8 4 14 9 14 5 0 7 -9 4 -19z m-313 -5 c0 -3 -4 -8
-10 -11 -5 -3 -10 -1 -10 4 0 6 5 11 10 11 6 0 10 -2 10 -4z m220 -27 c-7 -11
-14 -19 -16 -16 -7 7 7 37 17 37 6 0 5 -9 -1 -21z m36 -3 c-8 -14 -12 -26 -8
-29 4 -2 2 -3 -4 -1 -6 1 -18 -3 -25 -9 -7 -7 -6 -3 4 9 9 11 17 25 17 31 0
10 12 19 29 22 2 1 -4 -10 -13 -23z m91 -31 c-10 -7 -18 -17 -17 -21 1 -5 -3
-10 -9 -12 -18 -6 -13 13 10 37 12 12 24 19 27 16 4 -4 -1 -13 -11 -20z m-237
-45 c0 -5 -5 -10 -11 -10 -5 0 -7 5 -4 10 3 6 8 10 11 10 2 0 4 -4 4 -10z m50
-4 c0 -2 -7 -7 -16 -10 -8 -3 -12 -2 -9 4 6 10 25 14 25 6z m-139 -29 c-10 -9
-11 -8 -5 6 3 10 9 15 12 12 3 -3 0 -11 -7 -18z m110 -31 c-32 -33 -35 -63 -5
-52 8 3 14 -1 14 -10 0 -9 5 -12 12 -8 6 4 8 3 5 -4 -4 -5 -16 -8 -26 -5 -13
3 -30 -6 -51 -29 -21 -22 -28 -26 -21 -11 6 12 16 25 21 28 21 13 10 26 -12
15 l-23 -11 23 17 c12 9 22 24 22 33 0 17 48 69 64 70 6 1 -5 -14 -23 -33z
m-43 -3 c-8 -10 -18 -26 -21 -35 -6 -17 -27 -26 -27 -12 0 13 42 64 52 64 6 0
5 -7 -4 -17z m-71 -60 c-32 -71 -59 -113 -73 -113 -11 0 -3 17 26 59 23 33 39
64 35 70 -3 6 1 11 9 11 13 0 13 -4 3 -27z m-47 -16 c0 -2 -10 -12 -22 -23
l-23 -19 19 23 c18 21 26 27 26 19z m48 -70 c-13 -14 -31 -35 -41 -48 l-18
-24 12 25 c6 14 24 45 38 70 22 37 27 41 29 24 2 -12 -7 -33 -20 -47z m-186
-69 c-7 -7 -12 -8 -12 -2 0 14 12 26 19 19 2 -3 -1 -11 -7 -17z m15 -52 c-9
-7 -17 -18 -17 -25 0 -6 -4 -11 -10 -11 -5 0 -10 5 -10 11 0 13 43 49 50 42 3
-2 -3 -10 -13 -17z m-137 4 c0 -5 -5 -10 -11 -10 -5 0 -7 5 -4 10 3 6 8 10 11
10 2 0 4 -4 4 -10z m79 -22 c-33 -63 -33 -61 -7 -55 l23 6 -22 -16 c-28 -19
-30 -37 -3 -30 31 8 24 -6 -11 -22 -38 -17 -45 -10 -24 22 8 14 15 29 14 33
-1 5 0 11 1 14 1 3 3 13 5 23 3 17 23 47 31 47 2 0 -1 -10 -7 -22z m-89 -83
c-7 -9 -15 -13 -17 -11 -7 7 7 26 19 26 6 0 6 -6 -2 -15z m-10 -49 c0 -7 -9
-16 -21 -19 -21 -6 -21 -5 -3 13 23 23 24 23 24 6z m150 -26 c0 -5 -2 -10 -4
-10 -3 0 -8 5 -11 10 -3 6 -1 10 4 10 6 0 11 -4 11 -10z m-150 -5 c0 -2 -10
-9 -22 -15 -22 -11 -22 -10 -4 4 21 17 26 19 26 11z m857 -165 c4 -12 2 -12
-5 -2 -6 9 -18 11 -37 6 -21 -5 -26 -4 -21 5 11 17 58 10 63 -9z"/>
<path d="M1048 3357 l38 -37 268 0 c148 0 267 -2 264 -5 -2 -2 -30 -5 -61 -6
-32 -1 -60 -6 -63 -11 -3 -5 -36 -8 -72 -7 -37 0 -71 0 -77 -1 -5 -1 -14 -2
-18 -1 -5 1 -22 -7 -38 -16 -20 -12 -32 -14 -37 -7 -11 16 -62 32 -122 39 -54
6 -55 6 -68 -23 -16 -37 -84 -82 -125 -82 l-32 -1 25 -13 c31 -16 148 -28 156
-15 3 5 38 9 77 9 78 0 78 16 0 19 -52 2 -64 8 -43 21 12 8 11 10 -5 10 -17 0
-17 2 -5 10 24 15 60 12 54 -4 -4 -11 0 -13 15 -9 12 3 23 9 26 13 2 4 23 4
45 0 34 -6 147 -12 258 -14 17 0 32 -4 32 -8 0 -4 12 -5 28 -3 15 3 53 7 84 8
31 2 62 8 70 14 7 6 23 14 36 17 12 4 22 13 22 20 0 8 13 13 31 14 38 1 53 12
16 12 -15 0 -27 5 -27 11 0 7 -26 9 -74 7 -41 -2 -72 0 -69 5 2 4 23 7 46 7
71 0 86 8 78 38 l-7 27 -382 0 -382 0 38 -38z m702 10 c0 -8 -6 -14 -14 -14
-8 0 -12 6 -9 14 3 7 9 13 14 13 5 0 9 -6 9 -13z m-40 -96 c0 -5 -11 -11 -25
-13 -14 -3 -25 -2 -25 3 0 4 10 10 23 12 12 2 23 5 25 6 1 0 2 -3 2 -8z m50
-1 c0 -5 -4 -10 -10 -10 -5 0 -10 5 -10 10 0 6 5 10 10 10 6 0 10 -4 10 -10z"/>
<path d="M1848 3323 c7 -3 16 -2 19 1 4 3 -2 6 -13 5 -11 0 -14 -3 -6 -6z"/>
<path d="M2470 3299 c-22 -12 -28 -19 -17 -19 18 0 77 27 77 35 0 9 -25 2 -60
-16z"/>
<path d="M2395 3250 c-16 -7 -17 -9 -3 -9 9 -1 20 4 23 9 7 11 7 11 -20 0z"/>
<path d="M2199 3213 c-13 -15 -10 -16 32 -10 39 5 46 4 46 -11 0 -9 -7 -25
-15 -34 -19 -22 -4 -23 34 -3 16 8 38 15 49 14 18 0 18 -1 -3 -10 -14 -5 -20
-13 -16 -20 4 -7 3 -9 -3 -6 -6 4 -16 0 -23 -8 -7 -8 -15 -13 -19 -11 -3 2
-15 -3 -26 -11 -19 -15 -19 -15 5 -9 14 4 37 9 52 12 36 8 51 28 50 67 0 17 3
36 8 42 6 7 -19 11 -75 13 -67 2 -85 -1 -96 -15z"/>
<path d="M1453 3188 c-2 -5 -10 -5 -16 -1 -7 4 -6 0 1 -10 12 -14 32 -16 160
-11 182 7 186 8 189 19 3 12 -326 14 -334 3z"/>
<path d="M1268 3183 c7 -3 16 -2 19 1 4 3 -2 6 -13 5 -11 0 -14 -3 -6 -6z"/>
<path d="M1378 3183 c7 -3 16 -2 19 1 4 3 -2 6 -13 5 -11 0 -14 -3 -6 -6z"/>
<path d="M1637 3143 c-2 -2 -143 -4 -313 -4 l-309 -1 37 -34 38 -34 172 -1
c277 -1 325 -7 227 -28 -63 -14 -255 -16 -289 -3 -14 5 -49 12 -77 16 -48 6
-53 5 -53 -13 0 -12 -20 -34 -50 -56 -41 -30 -57 -36 -80 -31 -17 3 -30 1 -30
-4 0 -13 77 -32 125 -31 22 1 87 1 145 1 70 1 100 4 90 10 -8 5 -50 10 -92 10
-72 0 -94 9 -67 26 8 4 7 9 -2 16 -10 6 -7 8 11 6 16 -2 24 2 22 10 -2 13 20
17 32 5 4 -5 20 -8 36 -8 15 0 26 3 23 8 -2 4 3 7 12 7 10 0 15 -6 12 -13 -4
-10 10 -13 57 -14 137 -3 186 -7 186 -14 0 -5 44 -6 97 -4 95 5 151 23 138 45
-4 6 -2 10 4 10 5 0 11 -5 13 -10 2 -7 15 -5 36 5 32 17 45 32 17 21 -20 -7
-19 4 3 21 15 12 14 13 -15 8 -39 -8 -71 6 -35 15 13 3 22 10 20 15 -3 11 -14
11 -40 0 -14 -6 -18 -2 -18 15 0 17 4 21 20 17 11 -3 20 -1 20 3 0 13 -112 25
-123 13z m-27 -83 c0 -13 -11 -13 -30 0 -12 8 -11 10 8 10 12 0 22 -4 22 -10z
m88 3 c-16 -2 -40 -2 -55 0 -16 2 -3 4 27 4 30 0 43 -2 28 -4z m-340 -60 c-16
-2 -40 -2 -55 0 -16 2 -3 4 27 4 30 0 43 -2 28 -4z m129 1 c-3 -3 -12 -4 -19
-1 -8 3 -5 6 6 6 11 1 17 -2 13 -5z"/>
<path d="M2101 3111 c-10 -6 -10 -10 -1 -16 13 -8 24 -1 19 14 -3 6 -10 7 -18
2z"/>
<path d="M2346 3091 c-10 -11 -30 -19 -44 -19 -62 1 -74 -2 -68 -17 9 -24 -4
-48 -19 -35 -9 8 -14 6 -19 -5 -4 -12 5 -15 53 -15 55 0 118 20 105 33 -4 3 6
5 22 4 23 -2 30 3 32 21 2 12 -2 22 -8 22 -7 0 -10 7 -6 15 8 22 -27 19 -48
-4z"/>
<path d="M2487 3054 c-16 -9 -27 -17 -25 -20 6 -6 58 20 58 29 0 9 0 9 -33 -9z"/>
<path d="M5154 3049 c-19 -22 -19 -22 4 -10 12 6 22 16 22 21 0 15 -5 12 -26
-11z"/>
<path d="M2400 2998 c-14 -5 -52 -12 -85 -15 -33 -2 -64 -8 -69 -14 -12 -11
21 -38 47 -39 10 0 15 -4 12 -10 -3 -5 0 -10 7 -10 21 0 58 29 58 45 0 8 17
23 38 34 39 21 34 27 -8 9z"/>
<path d="M1436 2932 c-15 -3 -13 -6 11 -19 22 -12 50 -14 129 -9 117 6 184 16
184 26 0 7 -288 8 -324 2z"/>
<path d="M1785 2930 c-4 -6 9 -10 32 -9 30 0 34 2 18 9 -27 12 -43 12 -50 0z"/>
<path d="M2335 2906 c-16 -7 -39 -23 -49 -35 -19 -21 -19 -21 7 -21 15 0 27 5
27 10 0 6 11 10 24 10 18 0 24 5 24 25 0 14 -1 25 -2 25 0 -1 -14 -7 -31 -14z"/>
<path d="M1057 2850 l36 -35 276 -6 c152 -3 251 -6 220 -7 -31 -1 -69 -9 -85
-16 -22 -11 -61 -14 -154 -12 -119 2 -142 5 -165 17 -5 3 -30 7 -55 8 -25 2
-48 5 -52 8 -5 2 -8 -5 -8 -17 0 -22 -35 -59 -56 -60 -6 0 -17 -7 -25 -16 -9
-11 -22 -14 -42 -10 -42 9 -29 -13 18 -30 50 -17 205 -3 174 16 -7 5 -16 7
-20 4 -4 -2 -9 6 -12 18 -8 28 7 38 56 38 26 0 37 -4 37 -15 0 -12 13 -13 72
-10 40 3 75 10 79 16 4 7 9 5 12 -6 4 -9 12 -15 19 -14 7 2 40 -1 73 -6 33 -5
69 -9 79 -10 11 0 21 -6 23 -12 3 -9 -11 -13 -49 -13 l-53 -1 29 -16 c24 -13
50 -14 142 -9 126 7 174 14 174 27 0 5 -18 7 -39 5 -22 -2 -45 0 -52 5 -8 4
-16 3 -20 -3 -6 -9 -14 -9 -31 -1 -13 7 -17 12 -9 12 8 1 23 8 33 18 14 13 18
13 18 2 1 -10 4 -9 11 4 5 9 22 17 36 17 19 0 24 4 19 16 -3 8 -2 13 3 10 5
-3 17 6 26 20 l17 27 -78 -8 c-44 -4 -75 -3 -71 1 8 8 26 13 69 17 31 2 35 14
14 42 -13 19 -31 20 -370 20 l-355 0 36 -35z m723 -60 c0 -5 -9 -10 -21 -10
-11 0 -17 5 -14 10 3 6 13 10 21 10 8 0 14 -4 14 -10z m-55 -30 c3 -5 -1 -10
-9 -10 -9 0 -16 5 -16 10 0 6 4 10 9 10 6 0 13 -4 16 -10z m-238 -16 c-3 -3
-12 -4 -19 -1 -8 3 -5 6 6 6 11 1 17 -2 13 -5z m108 -44 c-3 -5 -12 -10 -18
-10 -7 0 -6 4 3 10 19 12 23 12 15 0z"/>
<path d="M2370 2849 c-14 -6 -28 -17 -33 -24 -6 -12 -12 -12 -27 -3 -13 8 -23
9 -28 3 -12 -13 -24 -75 -14 -75 40 -3 112 -5 112 -3 0 1 -7 8 -14 16 -13 13
-12 15 10 15 36 0 47 15 39 51 -7 34 -8 34 -45 20z"/>
<path d="M2470 2799 c-25 -14 -30 -19 -15 -19 11 0 31 9 45 20 31 24 16 24
-30 -1z"/>
<path d="M5575 2766 c-133 -33 -296 -148 -385 -272 l-34 -49 64 57 c36 32 71
58 78 58 23 0 27 -2 24 -12 -1 -5 2 -7 7 -3 6 3 15 -5 22 -17 11 -21 11 -22
-6 -8 -14 11 -12 3 9 -38 15 -29 31 -50 36 -47 5 3 13 -2 19 -12 14 -27 14
-35 1 -43 -8 -5 -6 -25 6 -76 9 -38 20 -73 24 -79 14 -19 21 -83 10 -90 -5 -3
-10 -33 -10 -67 0 -93 -27 -257 -59 -355 -37 -111 -84 -226 -109 -261 -11 -15
-25 -37 -31 -50 -12 -22 -11 -23 8 -12 12 6 34 30 49 53 26 41 38 56 75 99 9
12 17 25 17 29 0 4 9 7 20 6 21 -1 26 -12 11 -21 -5 -4 -11 0 -13 6 -3 7 -4
-10 -4 -37 0 -38 -9 -69 -37 -128 -20 -43 -37 -80 -37 -82 0 -12 90 50 130 89
36 35 46 52 44 74 -2 36 22 39 31 4 l6 -25 30 33 c33 35 45 35 33 -2 -4 -13
-9 -25 -9 -28 -1 -3 -5 -14 -10 -25 -39 -98 -54 -139 -52 -142 2 -1 23 7 47
19 44 22 110 81 110 99 0 5 9 14 21 21 11 7 29 30 40 51 11 20 24 37 29 37 6
0 3 -11 -6 -25 -9 -14 -13 -25 -9 -25 5 0 0 -9 -10 -20 -10 -11 -16 -22 -13
-25 3 -3 16 10 29 30 27 39 38 44 41 18 4 -50 -7 -81 -75 -208 -12 -22 -13
-31 -5 -37 9 -5 8 -12 -4 -25 -9 -10 -22 -31 -27 -47 -9 -22 -16 -27 -33 -23
-13 4 -32 -2 -48 -13 -46 -33 -201 -81 -274 -85 -38 -2 -71 -6 -73 -9 -8 -7
139 -17 192 -13 75 7 129 24 195 63 56 32 119 98 133 136 4 10 17 18 29 18 26
0 112 83 144 138 13 22 23 30 34 26 8 -3 23 -9 33 -11 22 -7 22 -40 -1 -78
-10 -16 -31 -52 -47 -80 l-28 -50 36 40 c21 22 46 57 57 78 11 20 24 37 29 37
5 0 15 15 21 34 6 19 22 45 36 59 15 15 22 31 18 41 -4 11 -1 16 10 16 9 0 16
4 16 9 0 5 14 3 30 -5 35 -18 35 -18 13 -44 -25 -28 -33 -25 -26 10 3 18 1 30
-5 30 -14 0 -24 -80 -22 -179 0 -20 2 -21 15 -11 8 7 15 19 15 26 0 8 6 13 13
11 6 -1 11 6 11 16 -1 9 2 17 7 17 5 0 9 9 9 21 0 15 5 19 15 15 9 -3 15 0 15
10 0 10 7 14 21 12 18 -3 24 6 41 57 10 33 20 74 22 91 2 17 6 36 10 43 4 6 5
11 3 11 -2 0 1 32 8 70 7 39 8 73 3 76 -4 3 -6 10 -3 15 4 5 1 9 -5 9 -7 0 -9
8 -5 20 3 11 0 29 -8 40 -14 20 -14 20 -32 0 -18 -20 -55 -28 -55 -11 0 5 10
12 23 14 18 4 17 4 -6 6 -16 0 -26 5 -22 11 3 6 1 10 -4 10 -6 0 -12 10 -12
23 -1 21 -2 21 -8 -3 -11 -46 -35 -100 -43 -100 -4 0 -8 -6 -8 -14 0 -11 -48
-52 -51 -44 -1 2 -2 80 -4 173 -3 193 -15 284 -48 384 -45 132 -141 261 -244
327 -29 18 -53 38 -53 43 0 13 -70 32 -83 24 -6 -3 -7 -2 -4 3 3 6 -20 11 -56
12 -69 3 -91 12 -31 13 21 0 48 4 59 9 l20 9 -20 1 c-19 1 -19 1 -2 14 9 7 17
16 17 20 0 10 -60 6 -115 -8z m-14 -118 c19 -6 52 -22 74 -35 37 -22 26 -11
-27 29 -23 17 -22 17 17 11 110 -15 244 -123 301 -243 29 -60 36 -82 48 -150
6 -35 26 -121 33 -145 5 -17 7 -18 12 -3 5 15 8 15 25 2 14 -10 17 -17 9 -25
-12 -12 -5 -52 8 -43 5 3 9 14 9 25 0 11 5 17 10 14 13 -8 13 -65 1 -65 -5 0
-22 5 -38 11 -22 8 -30 7 -39 -5 -6 -9 -17 -16 -23 -16 -7 0 -10 -4 -7 -9 4
-5 -4 -39 -16 -75 -17 -50 -25 -63 -34 -55 -7 6 -15 20 -17 32 -3 16 -7 9 -18
-27 -9 -30 -21 -51 -31 -54 -11 -3 -18 -14 -18 -31 -1 -22 -2 -23 -11 -9 -11
20 -1 118 13 118 5 0 6 5 2 12 -13 21 -12 130 2 164 19 45 18 80 -4 102 -10
10 -17 23 -15 29 5 13 -40 170 -63 221 -32 74 -172 194 -242 208 -17 4 -29 10
-26 15 7 12 24 11 65 -3z m38 -76 c65 -49 113 -115 103 -141 -3 -9 -1 -12 6
-7 7 4 15 0 19 -9 3 -10 1 -20 -6 -24 -8 -6 -6 -24 8 -72 11 -35 23 -85 26
-112 4 -26 10 -49 14 -52 12 -7 -9 125 -25 164 -13 32 -13 34 0 21 34 -34 69
-279 39 -272 -8 1 -13 -9 -13 -27 0 -17 -4 -32 -9 -35 -5 -4 -12 -24 -16 -46
-8 -44 -12 -48 -30 -23 -11 15 -13 13 -19 -14 -4 -18 -14 -37 -22 -44 -8 -6
-17 -29 -20 -50 -4 -23 -12 -39 -20 -39 -17 0 -19 -20 -1 -20 6 0 4 -5 -5 -11
-10 -5 -18 -15 -18 -20 0 -6 5 -7 10 -4 6 3 10 1 10 -4 0 -13 -17 -14 -24 -2
-4 5 1 38 9 73 8 35 15 78 15 97 0 25 4 32 15 27 20 -7 31 36 15 61 -9 15 -11
13 -7 -14 2 -18 0 -33 -5 -33 -4 0 -8 33 -7 73 0 39 3 66 6 60 2 -7 9 -13 15
-13 17 0 4 154 -16 184 -9 14 -14 26 -11 26 3 0 -4 9 -15 20 -12 12 -18 25
-15 30 3 5 1 19 -5 31 -6 11 -13 38 -15 60 -2 26 -16 57 -40 89 -45 62 -25 67
27 8 l38 -43 -20 36 c-11 20 -38 55 -60 79 -22 24 -40 45 -40 47 0 8 77 -30
109 -55z m-145 27 c15 -12 25 -24 22 -27 -7 -7 -76 30 -76 40 0 15 27 8 54
-13z m63 -159 c4 -14 13 -30 22 -37 9 -7 12 -13 7 -13 -5 0 -3 -7 4 -15 7 -8
10 -25 7 -37 -4 -13 -1 -30 4 -38 9 -13 10 -12 5 3 -3 9 -1 17 4 17 6 0 10
-12 10 -26 0 -14 -4 -22 -10 -19 -6 3 -7 -1 -4 -9 3 -9 10 -14 14 -11 4 2 13
-23 20 -56 7 -34 19 -63 27 -66 7 -3 13 -9 13 -14 0 -4 -6 -6 -14 -3 -10 4
-16 -2 -18 -18 -2 -13 -9 -22 -16 -20 -7 1 -12 -10 -12 -28 0 -17 -10 -50 -21
-72 l-21 -42 -19 23 c-11 13 -19 37 -19 55 -3 149 -24 326 -41 337 -7 4 -13
16 -14 26 -3 35 -36 147 -46 160 -6 7 -8 21 -4 30 5 15 16 8 61 -42 30 -33 58
-71 61 -85z m301 -745 c-3 -3 -9 2 -12 12 -6 14 -5 15 5 6 7 -7 10 -15 7 -18z
m-208 -17 c0 -6 -3 -8 -7 -5 -3 4 -13 1 -21 -6 -13 -10 -14 -9 -3 11 12 22 31
22 31 0z m643 -58 c3 -11 1 -18 -4 -14 -5 3 -9 12 -9 20 0 20 7 17 13 -6z
m-673 6 c0 -3 -4 -8 -10 -11 -5 -3 -10 -1 -10 4 0 6 5 11 10 11 6 0 10 -2 10
-4z m-170 -16 c0 -5 -2 -10 -4 -10 -3 0 -8 5 -11 10 -3 6 -1 10 4 10 6 0 11
-4 11 -10z m790 -47 c-11 -17 -11 -17 -6 0 3 10 6 24 7 30 0 9 2 9 5 0 3 -7 0
-20 -6 -30z m70 13 c0 -9 -10 -13 -25 -12 -23 1 -24 2 -8 14 22 16 33 15 33
-2z m-45 -36 c3 -5 1 -10 -4 -10 -6 0 -11 5 -11 10 0 6 2 10 4 10 3 0 8 -4 11
-10z m-735 -80 c0 -5 -2 -10 -4 -10 -3 0 -8 5 -11 10 -3 6 -1 10 4 10 6 0 11
-4 11 -10z m810 -9 c0 -10 -24 -21 -43 -21 -7 0 -3 7 7 15 22 17 36 19 36 6z
m-285 -31 c3 -5 1 -10 -4 -10 -6 0 -11 5 -11 10 0 6 2 10 4 10 3 0 8 -4 11
-10z m35 -20 c0 -5 -2 -10 -4 -10 -3 0 -8 5 -11 10 -3 6 -1 10 4 10 6 0 11 -4
11 -10z m140 -40 c0 -5 -4 -10 -10 -10 -5 0 -10 5 -10 10 0 6 5 10 10 10 6 0
10 -4 10 -10z"/>
<path d="M5695 2570 c10 -11 20 -20 23 -20 3 0 -3 9 -13 20 -10 11 -20 20 -23
20 -3 0 3 -9 13 -20z"/>
<path d="M2360 2723 c-39 -12 -60 -28 -56 -40 3 -7 1 -13 -4 -13 -6 0 -10 -10
-10 -23 0 -13 -5 -28 -11 -34 -8 -8 -5 -11 12 -10 13 0 33 -4 43 -8 13 -6 17
-5 13 3 -4 6 0 12 9 14 10 2 18 15 20 31 3 29 -5 34 -24 15 -6 -6 -14 -9 -17
-6 -4 3 5 17 19 31 21 21 36 50 24 46 -2 0 -10 -3 -18 -6z m-40 -73 c0 -5 -4
-10 -10 -10 -5 0 -10 5 -10 10 0 6 5 10 10 10 6 0 10 -4 10 -10z"/>
<path d="M1210 2679 c0 -5 5 -7 10 -4 6 3 10 8 10 11 0 2 -4 4 -10 4 -5 0 -10
-5 -10 -11z"/>
<path d="M1265 2680 c3 -5 14 -10 23 -10 15 0 15 2 2 10 -20 13 -33 13 -25 0z"/>
<path d="M4603 2679 c-6 -6 -9 -17 -7 -24 3 -7 -7 -15 -25 -18 -39 -8 -40 -22
-2 -23 29 -1 39 11 45 59 3 20 3 20 -11 6z"/>
<path d="M1818 2673 c7 -3 16 -2 19 1 4 3 -2 6 -13 5 -11 0 -14 -3 -6 -6z"/>
<path d="M4820 2635 c-7 -9 -11 -17 -9 -20 3 -2 10 5 17 15 14 24 10 26 -8 5z"/>
<path d="M1043 2615 c8 -6 16 -19 18 -29 4 -20 44 -32 63 -18 8 6 101 8 101 2
0 0 32 -3 70 -5 39 -3 72 -10 73 -16 3 -6 8 -6 15 0 19 14 228 19 223 4 -3 -6
0 -14 7 -16 7 -3 3 -5 -8 -5 -11 -1 -36 -3 -55 -6 -114 -16 -281 -17 -360 -2
-46 9 -88 20 -94 25 -7 6 -19 4 -31 -5 -15 -11 -17 -17 -7 -23 10 -6 7 -12
-12 -24 -14 -10 -30 -17 -36 -17 -5 0 -10 -4 -10 -8 0 -5 -13 -7 -30 -4 -47 7
-35 -14 15 -27 62 -16 272 -24 280 -11 4 6 3 10 -2 9 -4 -1 -34 -1 -67 0 -51
1 -57 3 -46 16 10 12 9 15 -6 15 -15 0 -16 2 -5 9 8 5 24 6 37 1 13 -5 26 -6
28 -1 6 10 209 1 216 -9 3 -4 14 -4 25 1 11 4 14 8 7 8 -7 1 -10 6 -6 12 5 8
10 6 16 -5 5 -9 22 -16 41 -16 23 0 28 -3 18 -9 -8 -5 -25 -7 -38 -5 -14 3
-26 -1 -29 -9 -3 -8 -15 -12 -33 -9 -16 2 -31 -1 -35 -6 -4 -7 6 -10 26 -9 18
0 41 -3 52 -8 15 -7 17 -5 12 13 -6 17 -4 21 8 16 9 -3 16 -10 16 -15 0 -5 7
-9 15 -9 8 0 15 -4 15 -9 0 -5 16 -5 39 0 21 5 62 9 90 10 48 2 84 18 44 20
-10 0 -13 3 -6 5 7 3 9 12 7 19 -4 9 5 17 27 22 18 5 34 14 37 21 2 7 -2 10
-12 6 -11 -4 -16 0 -16 12 -1 18 -1 18 -14 2 -13 -18 -26 -14 -26 7 0 21 37
55 60 55 22 0 22 1 5 20 -16 18 -32 19 -377 18 -260 -2 -356 -5 -345 -13z
m652 -46 c0 -8 -6 -14 -13 -14 -8 0 -20 -9 -28 -19 -8 -11 -14 -18 -15 -15 0
2 -2 12 -4 22 -2 10 3 17 11 17 8 0 17 7 21 15 7 19 28 14 28 -6z m-15 -63 c0
-2 -11 -6 -25 -8 -14 -3 -25 -1 -25 3 0 5 11 9 25 9 14 0 25 -2 25 -4z m-50
-30 c0 -3 -4 -8 -10 -11 -5 -3 -10 -1 -10 4 0 6 5 11 10 11 6 0 10 -2 10 -4z"/>
<path d="M4496 2594 c-11 -7 -16 -17 -13 -21 4 -4 15 1 24 10 22 21 14 30 -11
11z"/>
<path d="M2353 2588 c-4 -7 -14 -13 -20 -14 -7 -1 -20 -2 -28 -2 -8 -1 -15 -9
-15 -17 0 -17 -16 -20 -25 -5 -5 8 -11 7 -21 -1 -11 -9 -11 -13 2 -27 20 -19
134 -24 134 -5 0 6 -5 13 -12 15 -7 3 -6 7 5 11 11 4 17 1 17 -7 0 -9 10 -13
25 -12 23 1 37 16 15 16 -5 0 -10 6 -10 13 0 16 -32 47 -48 47 -6 0 -15 -6
-19 -12z"/>
<path d="M4790 2585 c-8 -9 -8 -15 -2 -15 12 0 26 19 19 26 -2 2 -10 -2 -17
-11z"/>
<path d="M2488 2562 c-16 -9 -28 -20 -28 -25 0 -5 14 1 30 13 17 12 30 23 30
26 0 6 -2 5 -32 -14z"/>
<path d="M4520 2565 c-8 -9 -8 -15 -2 -15 12 0 26 19 19 26 -2 2 -10 -2 -17
-11z"/>
<path d="M1755 2550 c-3 -5 -1 -10 4 -10 6 0 11 5 11 10 0 6 -2 10 -4 10 -3 0
-8 -4 -11 -10z"/>
<path d="M4417 2543 c-15 -14 -6 -25 10 -12 15 13 15 12 5 -8 -7 -12 -17 -25
-22 -28 -12 -7 -14 -35 -2 -35 11 1 43 70 37 81 -7 11 -19 12 -28 2z"/>
<path d="M4466 2525 c-10 -15 -15 -29 -12 -32 3 -3 8 2 12 11 3 9 10 14 14 11
13 -8 20 9 11 24 -6 9 -13 5 -25 -14z"/>
<path d="M4707 2503 c-4 -3 -7 -11 -7 -17 0 -6 5 -5 12 2 6 6 9 14 7 17 -3 3
-9 2 -12 -2z"/>
<path d="M4739 2475 c-7 -19 -16 -35 -20 -35 -4 0 -9 -10 -11 -22 -2 -13 -9
-22 -17 -20 -12 3 -12 1 -1 -13 12 -15 16 -13 34 22 11 21 21 47 23 57 2 11 8
25 14 33 8 9 8 13 1 13 -6 0 -16 -16 -23 -35z"/>
<path d="M2387 2473 c-12 -13 -20 -15 -25 -7 -5 8 -22 5 -56 -12 -28 -13 -59
-24 -70 -24 -21 -1 -21 -1 -2 -15 11 -8 27 -15 35 -15 25 0 116 50 129 71 15
24 12 24 -11 2z"/>
<path d="M4488 2463 c6 -2 18 -2 25 0 6 3 1 5 -13 5 -14 0 -19 -2 -12 -5z"/>
<path d="M4376 2435 c-11 -8 -17 -17 -14 -20 2 -3 13 4 23 15 21 23 18 25 -9
5z"/>
<path d="M4414 2426 c-16 -14 -23 -26 -16 -26 6 0 12 5 12 10 0 6 6 10 14 10
16 0 31 18 23 26 -3 3 -18 -6 -33 -20z"/>
<path d="M1740 2430 c0 -13 11 -13 30 0 12 8 11 10 -7 10 -13 0 -23 -4 -23
-10z"/>
<path d="M2350 2419 c-19 -11 -30 -19 -24 -19 14 0 27 -30 19 -39 -4 -3 -15 5
-26 19 l-21 25 7 -29 c4 -19 2 -32 -7 -38 -9 -7 -8 -8 5 -4 9 3 17 1 17 -4 0
-12 -46 -14 -53 -2 -2 4 -2 2 -1 -5 2 -6 -9 -16 -24 -22 -17 -6 -20 -10 -10
-10 25 -1 112 29 120 42 4 6 10 8 14 5 3 -4 13 0 22 8 12 13 13 17 2 24 -8 5
-9 13 -4 21 10 16 13 50 5 48 -3 -1 -22 -10 -41 -20z m30 -19 c-20 -13 -33
-13 -25 0 3 6 14 10 23 10 15 0 15 -2 2 -10z"/>
<path d="M4553 2408 c-4 -7 -8 -17 -9 -23 -1 -5 -16 -40 -33 -76 -17 -36 -31
-73 -31 -82 0 -9 -4 -18 -9 -21 -5 -3 -14 -21 -20 -38 l-10 -33 17 24 c9 14
29 52 43 85 14 34 29 68 33 76 3 8 15 30 26 48 11 17 15 32 9 32 -6 0 -7 5 -4
10 3 6 4 10 1 10 -3 0 -8 -6 -13 -12z"/>
<path d="M4295 2400 c-4 -6 3 -10 14 -10 25 0 27 6 6 13 -8 4 -17 2 -20 -3z"/>
<path d="M1080 2381 c0 -8 -8 -10 -21 -6 -14 5 -19 3 -15 -4 4 -6 1 -30 -6
-53 -7 -24 -12 -49 -13 -57 0 -7 -12 -23 -27 -35 -25 -20 -26 -23 -17 -68 13
-59 -3 -177 -26 -194 -22 -16 -19 -39 8 -57 13 -8 24 -24 24 -34 -1 -67 4 -84
26 -93 21 -8 21 -9 -6 -9 -32 -1 -264 33 -342 50 -84 18 -173 49 -199 70 -14
11 -30 18 -35 15 -5 -4 -11 -1 -13 6 -8 22 -25 -1 -20 -27 6 -35 69 -85 106
-85 16 0 27 -3 23 -6 -6 -6 -280 13 -310 22 -13 4 -21 -4 -32 -30 -17 -39 -20
-86 -6 -86 15 0 32 28 29 46 -2 13 4 19 24 20 15 2 35 7 45 12 20 11 123 6
198 -9 28 -5 95 -12 150 -15 55 -3 114 -9 130 -14 17 -5 57 -18 90 -28 34 -11
60 -24 60 -32 0 -10 15 -13 52 -13 35 1 52 -3 50 -10 -1 -8 16 -13 48 -14 75
-3 178 -17 194 -27 9 -6 12 -21 7 -52 -5 -36 -3 -44 10 -44 10 0 14 6 11 15
-4 8 -2 17 3 20 7 4 6 13 0 25 -5 10 -10 21 -10 25 0 12 72 36 108 35 48 -2
126 6 230 22 74 11 80 13 60 25 l-23 12 23 1 c14 0 21 4 17 11 -4 6 1 16 11
23 24 18 11 33 -36 40 -22 3 -58 9 -80 12 -25 4 -40 11 -40 20 0 16 -16 19
-25 4 -3 -5 -11 -10 -17 -10 -6 0 -3 9 7 20 18 20 18 20 1 14 -11 -4 -21 -1
-27 7 -7 11 -9 10 -10 -6 -1 -11 -1 -26 0 -34 2 -11 0 -11 -12 0 -8 8 -13 17
-10 22 2 4 -3 7 -11 7 -9 0 -16 4 -16 8 0 5 -6 9 -12 9 -34 2 -123 15 -130 20
-5 2 -6 14 -2 26 6 21 6 21 -9 3 -12 -17 -15 -17 -23 -4 -13 21 -39 29 -53 15
-8 -8 -11 -8 -11 1 0 7 3 12 8 13 4 0 15 2 24 4 10 2 20 -1 24 -6 3 -5 9 -9
14 -9 13 0 19 26 8 41 -8 11 -9 11 -4 -3 3 -10 1 -20 -4 -23 -6 -4 -10 -2 -10
3 0 5 -9 12 -21 15 -14 4 -18 10 -14 19 6 10 5 11 -6 1 -20 -19 -39 -16 -48
10 -11 28 -3 41 15 26 8 -6 14 -8 14 -4 0 4 7 2 15 -5 8 -6 20 -8 26 -4 7 4
27 7 46 6 26 -1 33 2 33 18 0 10 4 21 8 24 4 2 8 -20 7 -51 0 -30 3 -57 7 -59
4 -3 5 -11 1 -20 -5 -12 -1 -13 20 -3 14 6 28 18 31 26 4 10 1 11 -13 4 -16
-9 -17 -7 -13 14 2 15 0 25 -7 25 -6 0 -11 5 -11 11 0 6 9 8 20 4 15 -5 18 -3
14 9 -3 8 -2 21 2 28 5 7 9 26 10 41 1 33 18 55 28 38 4 -6 2 -11 -3 -11 -6 0
-11 -4 -11 -10 0 -5 6 -7 14 -4 7 3 20 -2 29 -10 13 -14 16 -14 21 0 3 9 4 20
0 25 -3 5 1 9 10 9 8 0 16 6 19 13 4 10 7 10 18 0 19 -19 31 -16 18 5 -7 12
-23 17 -52 17 -32 0 -41 4 -39 15 3 12 1 13 -9 3 -10 -10 -10 -16 -1 -25 7 -7
12 -18 12 -26 0 -9 -7 -5 -19 9 -17 21 -23 22 -40 12 -17 -10 -19 -10 -15 1 7
19 -23 28 -39 12 -11 -12 -19 -11 -46 0 -29 12 -32 12 -28 -1 6 -15 -16 -11
-40 7 -7 6 -17 7 -22 4 -5 -4 -13 -1 -16 5 -4 5 -13 8 -21 5 -7 -3 -16 -1 -19
4 -4 6 -16 3 -30 -6 -29 -19 -55 -15 -77 11 -18 22 -15 35 9 35 10 0 13 -6 9
-16 -5 -14 -4 -15 9 -4 15 12 160 14 500 6 116 -2 148 2 138 18 -5 8 -3 8 8 0
11 -9 21 -7 44 7 31 19 25 23 -30 19 -27 -2 -28 0 -15 16 14 16 13 17 -15 10
-16 -4 -31 -12 -33 -17 -2 -5 -10 -9 -18 -9 -9 0 -12 5 -9 10 6 9 -8 14 -27
11 -5 0 -8 3 -8 9 0 6 7 11 15 11 16 2 34 5 38 8 1 1 16 4 33 6 17 3 42 9 55
14 22 9 20 10 -16 11 l-40 2 30 10 c17 5 37 12 45 15 11 3 9 8 -10 18 -20 11
-71 13 -240 10 -221 -5 -334 1 -324 16 7 12 0 11 -30 -2 -20 -9 -29 -9 -41 1
-11 9 -15 9 -15 1z m348 -67 c36 -4 52 -10 52 -20 0 -8 3 -14 8 -15 27 -3 46
-9 56 -20 8 -9 8 -10 0 -6 -7 4 -18 -1 -25 -10 -13 -15 -10 -16 35 -11 30 4
43 2 35 -3 -8 -5 -33 -9 -56 -9 -24 0 -43 -5 -46 -12 -2 -7 -8 -10 -12 -6 -4
4 -2 14 4 22 7 8 8 16 4 19 -4 2 -64 4 -133 5 -93 0 -135 5 -164 17 -29 12
-36 19 -26 25 16 10 15 12 -20 27 -19 7 8 9 105 7 72 -2 154 -6 183 -10z m192
2 c0 -11 -19 -15 -25 -6 -3 5 1 10 9 10 9 0 16 -2 16 -4z m-340 -216 c0 -5 -7
-10 -15 -10 -8 0 -15 5 -15 10 0 6 7 10 15 10 8 0 15 -4 15 -10z m-210 -20 c0
-5 -5 -10 -11 -10 -5 0 -7 5 -4 10 3 6 8 10 11 10 2 0 4 -4 4 -10z m55 -28
c-2 -3 -12 -1 -22 2 -15 6 -15 9 -3 16 13 8 35 -8 25 -18z m45 -9 c0 -12 -2
-12 -15 1 -8 8 -15 17 -15 20 0 3 7 3 15 0 8 -4 15 -13 15 -21z m-593 -259
c-3 -3 -12 -4 -19 -1 -8 3 -5 6 6 6 11 1 17 -2 13 -5z m150 -10 c-3 -3 -12 -4
-19 -1 -8 3 -5 6 6 6 11 1 17 -2 13 -5z m110 0 c-3 -3 -12 -4 -19 -1 -8 3 -5
6 6 6 11 1 17 -2 13 -5z m60 -10 c-3 -3 -12 -4 -19 -1 -8 3 -5 6 6 6 11 1 17
-2 13 -5z m-41 -19 c17 -13 16 -14 -16 -3 -43 14 -49 18 -24 18 11 0 29 -7 40
-15z m112 8 c-10 -2 -26 -2 -35 0 -10 3 -2 5 17 5 19 0 27 -2 18 -5z m95 -10
c-7 -2 -21 -2 -30 0 -10 3 -4 5 12 5 17 0 24 -2 18 -5z m141 -11 c2 -4 -12 -6
-32 -4 -56 5 -62 10 -15 11 23 1 44 -3 47 -7z m46 -2 c13 -8 13 -10 -2 -10 -9
0 -20 5 -23 10 -8 13 5 13 25 0z m-295 -18 c-3 -3 -11 0 -18 7 -9 10 -8 11 6
5 10 -3 15 -9 12 -12z m342 12 c-3 -3 -12 -4 -19 -1 -8 3 -5 6 6 6 11 1 17 -2
13 -5z m98 -4 c3 -5 1 -10 -4 -10 -6 0 -11 5 -11 10 0 6 2 10 4 10 3 0 8 -4
11 -10z m-350 -31 l40 -19 -35 6 c-19 4 -46 12 -60 20 -41 22 7 16 55 -7z
m290 3 c-3 -3 -11 0 -18 7 -9 10 -8 11 6 5 10 -3 15 -9 12 -12z m235 2 c0 -2
-12 -4 -26 -4 -14 0 -23 4 -20 9 6 8 46 4 46 -5z m58 -5 c-12 -7 -24 -7 -35 0
-15 9 -12 10 17 10 29 0 32 -1 18 -10z"/>
<path d="M4277 2339 c-15 -18 -25 -34 -22 -37 7 -7 57 48 53 59 -2 5 -16 -5
-31 -22z"/>
<path d="M4680 2349 c0 -5 5 -7 10 -4 6 3 10 8 10 11 0 2 -4 4 -10 4 -5 0 -10
-5 -10 -11z"/>
<path d="M2320 2299 c-42 -18 -57 -28 -42 -29 13 0 32 5 42 10 15 8 21 6 29
-7 10 -17 10 -17 11 0 0 9 5 17 10 17 6 0 8 -11 4 -27 l-7 -27 32 33 c27 28
30 34 17 47 -18 18 -18 18 -96 -17z"/>
<path d="M4175 2321 c-3 -6 -14 -11 -24 -11 -10 0 -21 -8 -24 -19 -3 -14 0
-17 14 -14 21 6 55 41 47 49 -3 3 -9 1 -13 -5z"/>
<path d="M4215 2320 c-3 -5 -3 -10 1 -10 4 0 -3 -11 -16 -25 -22 -23 -18 -34
6 -17 11 7 34 45 34 56 0 10 -18 7 -25 -4z"/>
<path d="M4305 2310 c-3 -5 -1 -10 4 -10 6 0 11 5 11 10 0 6 -2 10 -4 10 -3 0
-8 -4 -11 -10z"/>
<path d="M4140 2249 c0 -5 5 -7 10 -4 6 3 10 8 10 11 0 2 -4 4 -10 4 -5 0 -10
-5 -10 -11z"/>
<path d="M4175 2240 c-3 -5 -1 -10 4 -10 6 0 11 5 11 10 0 6 -2 10 -4 10 -3 0
-8 -4 -11 -10z"/>
<path d="M2330 2229 c0 -5 5 -7 10 -4 6 3 10 8 10 11 0 2 -4 4 -10 4 -5 0 -10
-5 -10 -11z"/>
<path d="M2395 2200 c-6 -10 31 -70 43 -70 26 1 30 18 12 48 -20 32 -43 41
-55 22z"/>
<path d="M4126 2175 c-3 -8 -1 -15 3 -15 5 0 11 7 15 15 3 8 1 15 -3 15 -5 0
-11 -7 -15 -15z"/>
<path d="M6231 2154 c0 -11 3 -14 6 -6 3 7 2 16 -1 19 -3 4 -6 -2 -5 -13z"/>
<path d="M1557 2136 c10 -13 21 -22 26 -19 14 8 7 20 -18 31 l-26 12 18 -24z"/>
<path d="M2364 2119 c-8 -13 35 -21 53 -10 20 12 19 13 -20 15 -16 1 -30 -1
-33 -5z"/>
<path d="M4423 2118 c-16 -22 -33 -68 -25 -68 10 0 47 69 40 75 -3 3 -9 0 -15
-7z"/>
<path d="M4230 2095 c0 -8 2 -15 4 -15 2 0 6 7 10 15 3 8 1 15 -4 15 -6 0 -10
-7 -10 -15z"/>
<path d="M4009 2073 c-5 -16 -20 -36 -32 -45 -22 -17 -22 -17 -1 -12 21 6 71
84 53 84 -5 0 -14 -12 -20 -27z"/>
<path d="M4140 2088 c0 -7 -12 -24 -26 -39 -14 -15 -24 -33 -22 -40 2 -7 18 7
36 33 34 50 37 58 22 58 -5 0 -10 -5 -10 -12z"/>
<path d="M1505 2080 c3 -5 8 -10 11 -10 2 0 4 5 4 10 0 6 -5 10 -11 10 -5 0
-7 -4 -4 -10z"/>
<path d="M3794 2063 c-3 -10 -12 -31 -20 -47 -13 -25 -13 -28 1 -22 8 3 15 1
15 -4 0 -6 7 -10 15 -10 12 0 14 4 5 19 -7 13 -7 22 0 26 13 8 13 42 0 50 -6
3 -13 -2 -16 -12z"/>
<path d="M3950 2061 c-14 -26 -13 -38 2 -23 11 11 20 42 12 42 -2 0 -8 -9 -14
-19z"/>
<path d="M1550 2041 c0 -7 -4 -9 -10 -6 -5 3 -10 1 -10 -4 0 -6 4 -11 9 -11
13 0 25 20 17 27 -3 4 -6 1 -6 -6z"/>
<path d="M1385 2019 c-9 -29 15 -45 33 -22 12 17 17 42 5 30 -3 -4 -12 -2 -19
4 -9 7 -14 4 -19 -12z"/>
<path d="M3882 2033 c-7 -2 -17 -13 -22 -23 -9 -16 -7 -17 15 -6 37 17 44 44
7 29z"/>
<path d="M4040 2008 c-12 -22 -12 -22 6 -6 10 10 15 20 12 24 -4 3 -12 -5 -18
-18z"/>
<path d="M1496 2007 c3 -10 9 -15 12 -12 3 3 0 11 -7 18 -10 9 -11 8 -5 -6z"/>
<path d="M2440 1994 c-12 -22 -12 -28 -2 -32 10 -3 10 -7 0 -20 -12 -15 -11
-16 4 -3 10 7 16 17 13 21 -3 5 0 10 7 12 6 2 12 12 14 21 1 9 -1 15 -6 12 -5
-3 -10 0 -12 6 -2 6 -10 -2 -18 -17z"/>
<path d="M4366 2003 c-6 -14 -5 -15 5 -6 7 7 10 15 7 18 -3 3 -9 -2 -12 -12z"/>
<path d="M1457 1997 c-3 -9 -3 -16 1 -16 19 3 26 -2 14 -10 -11 -7 -9 -13 9
-30 l23 -21 -32 6 c-25 5 -32 3 -32 -9 0 -21 84 -35 167 -28 7 1 10 9 7 19 -5
16 -5 16 9 0 8 -10 27 -18 43 -17 l29 1 -33 11 c-40 13 -37 31 7 33 18 1 37 6
43 12 6 6 17 8 24 5 8 -3 14 0 14 6 0 6 -16 10 -35 9 -19 -1 -32 -5 -29 -10 8
-12 -10 -10 -24 4 -6 6 -37 10 -73 9 -55 -1 -61 0 -55 16 6 17 5 17 -8 0 -11
-15 -18 -16 -34 -8 -11 6 -22 16 -24 23 -3 8 -7 6 -11 -5z m81 -59 c16 -16 15
-25 -3 -25 -8 0 -13 3 -10 5 3 3 0 11 -6 19 -14 16 3 17 19 1z m71 -15 c-7
-10 -15 -20 -16 -22 -2 -2 -3 5 -3 17 0 14 6 22 16 22 14 0 15 -3 3 -17z"/>
<path d="M1630 1999 c0 -5 5 -7 10 -4 6 3 10 8 10 11 0 2 -4 4 -10 4 -5 0 -10
-5 -10 -11z"/>
<path d="M3979 1994 c-12 -14 -11 -16 5 -13 11 2 21 10 24 17 5 17 -13 15 -29
-4z"/>
<path d="M2360 1975 c0 -14 5 -25 10 -25 6 0 10 11 10 25 0 14 -4 25 -10 25
-5 0 -10 -11 -10 -25z"/>
<path d="M3859 1973 c-32 -39 -60 -85 -56 -89 2 -3 16 11 31 31 15 19 24 35
20 35 -3 0 4 9 17 20 13 10 19 19 13 20 -6 0 -17 -8 -25 -17z"/>
<path d="M3796 1961 c-13 -21 9 -34 25 -15 8 10 9 15 2 11 -6 -4 -13 -2 -15 5
-3 9 -6 9 -12 -1z"/>
<path d="M1280 1935 c0 -8 2 -15 4 -15 2 0 6 7 10 15 3 8 1 15 -4 15 -6 0 -10
-7 -10 -15z"/>
<path d="M3870 1935 c-8 -9 -8 -15 -2 -15 12 0 26 19 19 26 -2 2 -10 -2 -17
-11z"/>
<path d="M3975 1930 c-3 -5 -1 -10 4 -10 6 0 11 5 11 10 0 6 -2 10 -4 10 -3 0
-8 -4 -11 -10z"/>
<path d="M4323 1928 c-23 -30 -24 -41 -2 -21 12 12 20 25 17 28 -3 3 -10 0
-15 -7z"/>
<path d="M3150 1912 c-19 -10 -59 -41 -89 -70 -29 -29 -59 -52 -66 -52 -7 0
-23 -11 -36 -24 -13 -13 -33 -25 -43 -27 -31 -6 -41 -32 -25 -67 8 -18 17 -32
20 -32 4 0 16 16 28 35 12 22 25 33 34 29 8 -3 17 2 21 11 3 9 10 14 15 11 5
-4 36 9 68 29 78 47 93 59 93 78 0 10 6 14 14 11 9 -3 15 6 19 32 10 58 2 63
-53 36z"/>
<path d="M3918 1923 c6 -2 18 -2 25 0 6 3 1 5 -13 5 -14 0 -19 -2 -12 -5z"/>
<path d="M1405 1910 c-3 -5 -1 -10 4 -10 6 0 11 5 11 10 0 6 -2 10 -4 10 -3 0
-8 -4 -11 -10z"/>
<path d="M2980 1890 c-8 -5 -11 -12 -7 -16 4 -4 13 -2 19 4 15 15 7 24 -12 12z"/>
<path d="M3720 1900 c-1 -3 -4 -16 -6 -30 -3 -18 -2 -22 7 -13 6 6 9 19 6 29
-3 11 -6 17 -7 14z"/>
<path d="M3832 1884 c-7 -8 -8 -14 -3 -14 10 0 25 19 20 25 -2 1 -10 -3 -17
-11z"/>
<path d="M3885 1890 c-3 -5 -1 -10 4 -10 6 0 11 5 11 10 0 6 -2 10 -4 10 -3 0
-8 -4 -11 -10z"/>
<path d="M2915 1864 l-30 -13 27 -1 c15 0 30 5 33 11 11 16 2 17 -30 3z"/>
<path d="M3672 1868 c3 -7 -5 -20 -16 -30 -26 -21 -1 -25 27 -4 21 16 22 46 1
46 -9 0 -14 -6 -12 -12z"/>
<path d="M4280 1859 c0 -5 5 -7 10 -4 6 3 10 8 10 11 0 2 -4 4 -10 4 -5 0 -10
-5 -10 -11z"/>
<path d="M2953 1843 c-15 -5 -17 -23 -4 -23 5 0 11 7 15 15 3 8 4 15 3 14 -1
0 -8 -3 -14 -6z"/>
<path d="M4015 1830 c-3 -5 -1 -10 4 -10 6 0 11 5 11 10 0 6 -2 10 -4 10 -3 0
-8 -4 -11 -10z"/>
<path d="M3710 1823 c-29 -5 -52 -23 -29 -23 7 1 28 7 44 15 31 14 28 15 -15
8z"/>
<path d="M2360 1811 c0 -5 9 -7 20 -4 11 3 20 7 20 9 0 2 -9 4 -20 4 -11 0
-20 -4 -20 -9z"/>
<path d="M3756 1804 c-17 -12 -17 -14 -4 -14 9 0 20 5 23 11 11 17 2 18 -19 3z"/>
<path d="M2890 1800 c0 -5 5 -10 10 -10 6 0 10 5 10 10 0 6 -4 10 -10 10 -5 0
-10 -4 -10 -10z"/>
<path d="M4232 1789 c-7 -11 -17 -17 -22 -14 -6 3 -10 2 -10 -3 0 -4 -19 -19
-42 -32 -42 -23 -58 -37 -58 -53 0 -17 101 47 125 79 15 20 25 37 23 39 -2 2
-9 -5 -16 -16z"/>
<path d="M3817 1793 c-4 -3 -7 -11 -7 -17 0 -6 5 -5 12 2 6 6 9 14 7 17 -3 3
-9 2 -12 -2z"/>
<path d="M2355 1770 c-3 -5 -1 -10 4 -10 6 0 11 5 11 10 0 6 -2 10 -4 10 -3 0
-8 -4 -11 -10z"/>
<path d="M2838 1773 c7 -3 16 -2 19 1 4 3 -2 6 -13 5 -11 0 -14 -3 -6 -6z"/>
<path d="M2280 1762 c0 -5 14 -7 30 -4 17 2 30 6 30 8 0 2 -13 4 -30 4 -16 0
-30 -4 -30 -8z"/>
<path d="M1731 1746 c-9 -11 -9 -16 0 -22 7 -4 9 -3 5 4 -3 5 0 12 6 15 7 2
10 7 7 11 -3 4 -12 0 -18 -8z"/>
<path d="M2140 1750 c-12 -8 -12 -10 5 -10 11 0 27 5 35 10 12 8 12 10 -5 10
-11 0 -27 -5 -35 -10z"/>
<path d="M2033 1743 c15 -2 39 -2 55 0 15 2 2 4 -28 4 -30 0 -43 -2 -27 -4z"/>
<path d="M538 1733 c7 -3 16 -2 19 1 4 3 -2 6 -13 5 -11 0 -14 -3 -6 -6z"/>
<path d="M2800 1730 c0 -5 5 -10 10 -10 6 0 10 5 10 10 0 6 -4 10 -10 10 -5 0
-10 -4 -10 -10z"/>
<path d="M2633 1723 c9 -2 23 -2 30 0 6 3 -1 5 -18 5 -16 0 -22 -2 -12 -5z"/>
<path d="M640 1709 c0 -5 5 -7 10 -4 6 3 10 8 10 11 0 2 -4 4 -10 4 -5 0 -10
-5 -10 -11z"/>
<path d="M1748 1703 c7 -3 16 -2 19 1 4 3 -2 6 -13 5 -11 0 -14 -3 -6 -6z"/>
<path d="M2264 1699 c-10 -4 -56 -8 -101 -8 -46 -1 -83 -5 -83 -10 0 -9 130
-7 190 3 14 2 103 5 199 5 96 1 172 4 169 7 -9 9 -352 12 -374 3z"/>
<path d="M830 1689 c0 -5 5 -7 10 -4 6 3 10 8 10 11 0 2 -4 4 -10 4 -5 0 -10
-5 -10 -11z"/>
<path d="M1845 1680 l-30 -8 35 -1 c19 0 42 4 50 9 12 8 11 10 -5 9 -11 -1
-33 -5 -50 -9z"/>
<path d="M2000 1680 c-11 -7 -3 -10 30 -9 34 0 40 2 25 9 -27 12 -37 12 -55 0z"/>
<path d="M2810 1609 c0 -5 5 -7 10 -4 6 3 10 8 10 11 0 2 -4 4 -10 4 -5 0 -10
-5 -10 -11z"/>
<path d="M2555 1590 c-4 -6 6 -10 22 -10 22 0 25 2 13 10 -19 12 -27 12 -35 0z"/>
<path d="M2628 1593 c7 -3 16 -2 19 1 4 3 -2 6 -13 5 -11 0 -14 -3 -6 -6z"/>
<path d="M2508 1583 c7 -3 16 -2 19 1 4 3 -2 6 -13 5 -11 0 -14 -3 -6 -6z"/>
<path d="M3657 1452 c16 -26 16 -26 -1 -10 -17 15 -20 15 -41 -10 l-23 -27 20
-49 c23 -58 184 -374 202 -396 19 -23 82 -148 104 -208 20 -52 147 -237 219
-320 42 -47 2 -34 463 -156 134 -35 134 -36 108 -11 -15 13 -29 34 -33 46 -4
11 -14 29 -23 38 -25 26 -86 99 -133 161 -24 30 -46 57 -51 58 -4 2 -8 8 -8
14 0 6 -22 31 -50 57 -27 26 -50 50 -50 54 0 5 -11 20 -25 35 -14 15 -25 31
-25 35 0 5 -10 23 -22 40 l-22 32 23 -20 23 -20 -22 38 c-13 22 -29 41 -37 44
-7 3 -13 13 -13 23 0 10 -10 20 -22 23 -17 5 -19 9 -10 20 10 11 0 23 -49 61
-33 26 -58 50 -55 53 3 4 15 -2 26 -12 11 -10 23 -15 27 -12 3 4 1 7 -5 7 -6
0 -9 8 -6 18 4 13 3 14 -4 4 -7 -11 -10 -10 -16 3 -3 10 -12 15 -20 12 -9 -4
-25 8 -41 29 -14 19 -23 34 -19 34 4 0 0 8 -9 18 -10 10 -14 22 -10 27 5 4 3
5 -4 2 -7 -4 -16 6 -23 26 -10 24 -14 27 -17 15 -7 -26 -18 -22 -19 8 -1 14
-10 31 -20 38 -11 9 -14 18 -9 27 7 11 6 12 -7 2 -17 -15 -28 -8 -28 18 0 12
-5 16 -15 13 -11 -4 -13 -2 -9 9 8 22 -32 55 -61 49 -15 -2 -25 0 -25 7 0 6
-9 11 -20 11 -11 0 -20 6 -20 14 0 15 -40 49 -48 41 -3 -2 1 -11 8 -20 10 -13
9 -15 -8 -15 -12 0 -23 8 -27 19 -3 11 -12 22 -20 25 -12 4 -12 0 2 -22z m122
-66 c10 -12 8 -13 -8 -9 -12 3 -18 9 -15 14 7 12 10 11 23 -5z m78 -27 c17
-17 5 -43 -13 -28 -15 12 -19 39 -6 39 4 0 13 -5 19 -11z m337 -411 c-3 -5
-12 -4 -20 3 -19 16 -18 18 6 12 11 -3 17 -9 14 -15z"/>
<path d="M3150 1461 c0 -4 -14 -7 -32 -5 -34 4 -138 -24 -138 -38 0 -4 -6 -8
-14 -8 -8 0 -17 -8 -19 -17 -4 -17 -5 -17 -6 0 -1 20 -19 22 -44 3 -16 -13
-18 -33 -16 -230 1 -148 5 -218 13 -224 23 -19 55 -20 59 -3 4 13 5 13 6 -3 1
-15 6 -17 33 -12 46 9 72 29 118 91 46 62 49 74 18 77 -13 0 -30 2 -38 3 -8 1
-25 -2 -37 -7 -15 -5 -23 -4 -23 4 0 6 -3 8 -6 5 -4 -4 -15 3 -25 14 l-17 20
-16 -23 c-14 -19 -18 -21 -26 -8 -14 22 -16 149 -4 193 8 26 38 22 31 -5 -12
-44 10 -49 71 -14 31 18 65 35 74 39 21 8 36 -12 17 -24 -7 -4 -10 -11 -7 -15
12 -11 40 5 45 26 4 15 11 18 28 14 28 -7 36 18 28 87 -6 49 -18 63 -29 34 -6
-15 -25 -21 -23 -7 4 21 -2 42 -11 42 -5 0 -10 -4 -10 -9z"/>
<path d="M5790 1450 c0 -5 5 -10 10 -10 6 0 10 5 10 10 0 6 -4 10 -10 10 -5 0
-10 -4 -10 -10z"/>
<path d="M6129 1394 c-5 -15 -7 -29 -4 -32 3 -4 8 4 12 16 3 12 9 19 14 16 5
-3 6 2 3 10 -8 22 -13 20 -25 -10z"/>
<path d="M6277 1373 c-3 -10 -12 -35 -21 -55 -9 -21 -12 -38 -7 -38 5 0 14 15
21 33 6 17 16 40 21 49 11 22 11 28 0 28 -5 0 -11 -8 -14 -17z"/>
<path d="M6200 1199 c0 -5 5 -7 10 -4 6 3 10 8 10 11 0 2 -4 4 -10 4 -5 0 -10
-5 -10 -11z"/>
<path d="M4990 1155 c0 -10 51 -98 76 -132 13 -17 24 -35 24 -40 0 -15 112
-118 170 -156 82 -55 167 -80 284 -83 63 -2 107 1 120 9 12 6 30 12 41 13 37
4 130 44 160 69 34 29 16 24 -52 -12 -50 -26 -53 -27 -53 -13 0 6 6 10 14 10
8 0 18 9 21 20 3 11 10 20 15 20 5 0 17 14 25 30 9 17 19 29 23 26 10 -6 38
11 31 18 -2 3 -16 -1 -29 -8 -21 -10 -29 -10 -47 2 -12 7 -19 20 -16 28 3 9
-11 5 -42 -12 -25 -15 -49 -24 -52 -20 -4 3 -1 6 5 6 6 0 17 6 24 13 7 7 24
21 38 30 18 12 20 17 8 17 -9 0 -23 -6 -31 -14 -8 -9 -24 -12 -36 -9 -11 3
-28 0 -36 -7 -11 -9 -18 -9 -29 3 -14 13 -13 16 10 21 33 9 26 28 -11 32 -41
5 -65 -4 -58 -22 3 -7 0 -14 -6 -14 -6 0 -11 4 -11 10 0 6 -9 6 -24 0 -13 -5
-27 -6 -30 -3 -3 4 -6 1 -6 -5 0 -7 -7 -12 -15 -12 -8 0 -15 -8 -15 -18 0 -16
7 -18 58 -14 62 5 65 -6 5 -18 -91 -19 -102 -24 -90 -37 9 -8 142 -2 142 7 0
1 9 4 20 5 11 2 29 6 40 10 13 5 17 5 10 -2 -14 -13 -140 -53 -169 -53 -32 0
-63 -29 -44 -41 9 -6 4 -9 -15 -9 -70 0 -253 93 -241 124 4 11 13 12 37 5 l32
-9 -30 25 c-42 36 -85 57 -100 51 -7 -2 -16 2 -19 10 -3 8 -12 14 -21 14 -8 0
-15 4 -15 9 0 5 -6 16 -12 23 -23 25 -58 77 -58 87 0 5 -4 13 -10 16 -5 3 -10
3 -10 0z m185 -223 c-3 -3 -16 5 -28 17 l-22 23 28 -17 c15 -10 25 -20 22 -23z
m439 17 c-6 -11 -24 -2 -24 11 0 5 7 7 15 4 8 -4 12 -10 9 -15z m191 -39 c3
-5 1 -10 -4 -10 -6 0 -11 5 -11 10 0 6 2 10 4 10 3 0 8 -4 11 -10z m-105 -10
c0 -5 -2 -10 -4 -10 -3 0 -8 5 -11 10 -3 6 -1 10 4 10 6 0 11 -4 11 -10z"/>
<path d="M5046 1147 c5 -14 2 -16 -12 -10 -16 6 -16 3 4 -24 11 -16 28 -36 37
-43 22 -19 18 4 -5 25 -30 28 -24 39 9 16 36 -26 36 -26 36 5 0 20 -4 24 -20
20 -10 -3 -27 2 -38 11 -17 16 -17 16 -11 0z"/>
<path d="M5195 1080 l-40 -5 38 -12 c20 -6 35 -7 32 -3 -3 5 1 10 7 13 24 8 3
13 -37 7z"/>
<path d="M5140 1031 c0 -13 89 -66 97 -57 3 3 13 0 22 -7 14 -11 14 -10 2 5
-27 35 -121 81 -121 59z"/>
<path d="M5950 910 c-13 -11 -27 -20 -32 -20 -4 0 -8 -5 -8 -10 0 -7 6 -7 18
-1 33 18 57 39 51 45 -3 3 -16 -3 -29 -14z"/>
<path d="M539 824 c61 -28 282 -84 426 -109 191 -32 372 -45 599 -44 l191 2
-170 12 c-150 11 -313 36 -426 66 -20 5 -90 9 -155 9 -66 0 -159 5 -209 11
-77 10 -122 20 -270 63 -11 4 -5 -1 14 -10z"/>
</g>
</svg>
